<svg xmlns="http://www.w3.org/2000/svg" width="48" height="48" viewBox="0 0 48 48">
  <g id="CohortBuilder" transform="translate(-112 -32)">
    <rect id="Rectangle_424" data-name="Rectangle 424" width="48" height="48" rx="3" transform="translate(112 32)" fill="#fff" style="fill-opacity:0;"/>
    <circle id="DarkBlue" cx="20" cy="20" r="20" transform="translate(116 36)" fill="#00334d"/>
    <circle id="LightBule" cx="17" cy="17" r="17" transform="translate(121.5 38.731)" fill="#406fab"/>
    <circle id="White" cx="14" cy="14" r="14" transform="translate(127 42)" fill="#fff"/>
    <g id="People" transform="translate(128.014 45.691)">
      <g id="Left">
        <path id="Intersection_1" data-name="Intersection 1" d="M0,.4A6.53,6.53,0,0,1,3.867.2a6.452,6.452,0,0,1,1.47.577A8.3,8.3,0,0,0,3.553,7.74,12.094,12.094,0,0,1,0,.4Z" transform="matrix(0.995, 0.105, -0.105, 0.995, 0.809, 9.931)" fill="#36ba85"/>
        <circle id="Ellipse_36" data-name="Ellipse 36" cx="2.036" cy="2.036" r="2.036" transform="translate(4.077 5.6)" fill="#36ba85"/>
      </g>
      <g id="Middle">
        <path id="Intersection_3" data-name="Intersection 3" d="M.187,10.03a8.273,8.273,0,1,1,16.171,0A13.938,13.938,0,0,1,8.273,12.6,13.938,13.938,0,0,1,.187,10.03Z" transform="translate(4.713 9.673)" fill="#e45a4c"/>
        <circle id="Ellipse_35" data-name="Ellipse 35" cx="4.073" cy="4.073" r="4.073" transform="translate(8.913)" fill="#e9564f"/>
      </g>
      <g id="Right">
        <path id="Intersection_4" data-name="Intersection 4" d="M0,7.341a6.455,6.455,0,0,0,2.247.4,6.515,6.515,0,0,0,1.62-.2,6.452,6.452,0,0,0,1.47-.577A8.238,8.238,0,0,1,3.392,1.631,8.307,8.307,0,0,1,3.553,0,12.094,12.094,0,0,0,0,7.341Z" transform="matrix(-0.995, 0.105, -0.105, -0.995, 25.844, 17.629)" fill="#36ba85"/>
        <circle id="Ellipse_37" data-name="Ellipse 37" cx="2.036" cy="2.036" r="2.036" transform="translate(17.822 5.6)" fill="#36ba85"/>
      </g>
    </g>
  </g>
</svg>
