<?xml version="1.0" encoding="UTF-8" standalone="no"?>
<svg
   xmlns:dc="http://purl.org/dc/elements/1.1/"
   xmlns:cc="http://creativecommons.org/ns#"
   xmlns:rdf="http://www.w3.org/1999/02/22-rdf-syntax-ns#"
   xmlns:svg="http://www.w3.org/2000/svg"
   xmlns="http://www.w3.org/2000/svg"
   x="0px"
   y="0px"
   viewBox="0 0 90 40.602223"
   width="80"
   height="53.777779"
   style="display:block"
   version="1.1"
   id="svg3623">
  <metadata
     id="metadata3629">
    <rdf:RDF>
      <cc:Work
         rdf:about="">
        <dc:format>image/svg+xml</dc:format>
        <dc:type
           rdf:resource="http://purl.org/dc/dcmitype/StillImage" />
        <dc:title></dc:title>
      </cc:Work>
    </rdf:RDF>
  </metadata>
  <defs
     id="defs3627" />
  <g
     id="g3621"
     transform="translate(0,-14.8)">
    <g
       class="person-bg"
       id="g3613">
      <path
         fill="#691030"
         d="m 21.3,31.1 c 6.3,0 11.4,-6.7 11.4,-13 C 32.7,11.8 27.6,6.7 21.3,6.7 15,6.7 9.9,11.8 9.9,18.1 c 0,6.3 5.1,13 11.4,13 z"
         id="path3609" />
      <path
         fill="#691030"
         d="m 36.9,35.4 c 0.2,-0.2 0.4,-0.4 0.5,-0.6 -2.1,-1.9 -4.7,-3.1 -7.6,-3.6 -2.2,1.7 -5,2.7 -8,2.7 h -1.2 c -3,0 -5.7,-1 -8,-2.7 C 5.5,32.3 0,38.6 0,46.2 c 0,4.1 9.5,7.5 21.3,7.5 3.7,0 7.2,-0.3 10.2,-0.9 -0.2,-0.6 -0.3,-1.3 -0.3,-2 0,-5.7 2,-11.1 5.7,-15.4 z"
         id="path3611" />
    </g>
    <g
       class="person-fg"
       id="g3619">
      <path
         fill="#005083"
         d="m 57.5,30.1 c 1.6,0.8 3.3,1.2 5.1,1.2 1.8,0 3.5,-0.4 5.1,-1.2 5.6,-2.6 9.5,-9.2 9.5,-15.5 C 77.3,6.6 70.7,0 62.6,0 54.5,0 48,6.6 48,14.7 c 0,6.2 3.9,12.8 9.5,15.4 z"
         id="path3615" />
      <path
         fill="#005083"
         d="m 73.6,31.5 c -1.3,1 -2.8,1.8 -4.5,2.4 -1.8,0.7 -3.7,1 -5.8,1 h -1.5 c -2,0 -4,-0.4 -5.8,-1 -1.6,-0.6 -3.1,-1.4 -4.5,-2.4 -4.6,0.7 -8.6,3.1 -11.5,6.4 -3,3.4 -4.8,7.9 -4.8,12.9 0,0.4 0.1,0.7 0.2,1.1 1.5,4.8 13.1,8.6 27.2,8.6 C 77.7,60.5 90,56.2 90,50.8 90,41 82.9,33 73.6,31.5 Z"
         id="path3617" />
    </g>
  </g>
</svg>
