<svg id="_3Cohort_Level_MAF_Tool_BlkonWht" data-name="3Cohort Level MAF Tool BlkonWht" xmlns="http://www.w3.org/2000/svg" width="48" height="48" viewBox="0 0 48 48">
  <rect id="Rectangle_429" data-name="Rectangle 429" width="48" height="48" rx="3" fill="#fff"/>
  <g id="Group_581" data-name="Group 581">
    <path id="Path_261" data-name="Path 261" d="M33.08,21.52c0,.05,0,.07-.07.06h-.05a23.036,23.036,0,0,1-9.05,1.72,22.953,22.953,0,0,1-9.04-1.72c-.1,0-.13-.02-.12-.12,0-.31.03-.59.03-.89a.643.643,0,0,1,.02-.16c.03-.24.06-.48.1-.71a12.265,12.265,0,0,1,.34-1.39,9.14,9.14,0,0,1,1.42-2.8,9.567,9.567,0,0,1,.82-.99c.15-.17.33-.33.5-.49a10.056,10.056,0,0,1,.94-.76c.11-.08.17-.07.27.02a6.967,6.967,0,0,0,3.46,1.67,7.063,7.063,0,0,0,5.94-1.63c.18-.15.13-.18.36-.03a9.717,9.717,0,0,1,3.93,6.17c.06.32.11.63.14.95a.9.9,0,0,0,.02.13l.03.97Z" fill="#2a74a5" stroke="#fff" stroke-miterlimit="10" stroke-width="0.77"/>
    <path id="Path_262" data-name="Path 262" d="M24.59,3.78c.03.07.09.05.14.06A5.415,5.415,0,1,1,23,3.86c.08-.01.18.01.24-.07h1.35Z" fill="#2a74a5" stroke="#fff" stroke-miterlimit="10" stroke-width="0.77"/>
    <path id="Path_263" data-name="Path 263" d="M17.25,14.13a7.693,7.693,0,0,0-.82.99,9.14,9.14,0,0,0-1.42,2.8,17.565,17.565,0,0,1-3.43.33,15.741,15.741,0,0,1-6.2-1.18c-.07,0-.09-.02-.09-.09,0-.21.03-.4.03-.61v-.11c.03-.16.04-.33.08-.49A6.715,6.715,0,0,1,6.6,12.9a6.577,6.577,0,0,1,.9-1.01,6.437,6.437,0,0,1,.65-.52.127.127,0,0,1,.18,0,4.736,4.736,0,0,0,2.37,1.14,4.828,4.828,0,0,0,4.07-1.12c.13-.1.09-.13.25-.02a6.4,6.4,0,0,1,2.21,2.73Z" fill="#699dc0" stroke="#fff" stroke-miterlimit="10" stroke-width="0.77"/>
    <path id="Path_264" data-name="Path 264" d="M12.05,5.03s.06.03.09.04a3.7,3.7,0,1,1-1.18.01.216.216,0,0,0,.17-.05h.93Z" fill="#699dc0" stroke="#fff" stroke-miterlimit="10" stroke-width="0.77"/>
    <path id="Path_265" data-name="Path 265" d="M30.75,14.13a7.693,7.693,0,0,1,.82.99,9.14,9.14,0,0,1,1.42,2.8,17.565,17.565,0,0,0,3.43.33,15.741,15.741,0,0,0,6.2-1.18c.07,0,.09-.02.09-.09,0-.21-.03-.4-.03-.61v-.11c-.03-.16-.04-.33-.08-.49a6.715,6.715,0,0,0-1.2-2.87,6.577,6.577,0,0,0-.9-1.01,6.436,6.436,0,0,0-.65-.52.127.127,0,0,0-.18,0,4.736,4.736,0,0,1-2.37,1.14,4.828,4.828,0,0,1-4.07-1.12c-.13-.1-.09-.13-.25-.02a6.4,6.4,0,0,0-2.21,2.73Z" fill="#699dc0" stroke="#fff" stroke-miterlimit="10" stroke-width="0.77"/>
    <path id="Path_266" data-name="Path 266" d="M35.95,5.03s-.06.03-.09.04a3.7,3.7,0,1,0,1.18.01.216.216,0,0,1-.17-.05h-.93Z" fill="#699dc0" stroke="#fff" stroke-miterlimit="10" stroke-width="0.77"/>
  </g>
  <path id="Path_267" data-name="Path 267" d="M23.9,20.27a8.881,8.881,0,0,1,7.29,4.64,12.421,12.421,0,0,0-1.91,3.95c-.03.08-.05.17-.08.25-1.54-5.09-4.37-5.77-5.33-5.86h-.03a1.7,1.7,0,0,0-.21-.01h-.09c-.1.01-.2.01-.29.01-.94.08-3.75.76-5.31,5.85-.03.08-.05.17-.08.26a12.214,12.214,0,0,1-1.91,3.95,11.881,11.881,0,0,1-9.9,4.66,1.613,1.613,0,0,1-1.67-1.6,1.714,1.714,0,0,1,1.91-1.39,8.157,8.157,0,0,0,7.92-5.87c.05-.14.09-.29.14-.44a15.259,15.259,0,0,1,1.6-3.77,8.868,8.868,0,0,1,7.29-4.64c.14,0,.37-.01.66,0Z" fill="#00ba8b" stroke="#fff" stroke-miterlimit="10" stroke-width="1"/>
  <path id="Path_268" data-name="Path 268" d="M40.85,34.99a1.726,1.726,0,0,1,1.9,1.4v.1a1.633,1.633,0,0,1-1.67,1.49,11.918,11.918,0,0,1-9.9-4.65,15.672,15.672,0,0,0,1.6-3.77c.05-.15.09-.3.14-.44a8.146,8.146,0,0,0,7.93,5.87Z" fill="#00ba8b" stroke="#fff" stroke-miterlimit="10" stroke-width="1"/>
  <g id="Group_582" data-name="Group 582">
    <path id="Path_269" data-name="Path 269" d="M17.94,29.11a9.693,9.693,0,0,0,2.81,4.75,1.394,1.394,0,0,1,.52,1.06,1.374,1.374,0,0,1-.53,1.06,2.086,2.086,0,0,1-2.55,0,10.393,10.393,0,0,1-2.24-2.65,12.114,12.114,0,0,0,1.91-3.95c.03-.09.05-.18.08-.26Z" fill="#ee5251" stroke="#fff" stroke-miterlimit="10" stroke-width="1"/>
    <path id="Path_270" data-name="Path 270" d="M15.95,24.91a15.875,15.875,0,0,0-1.6,3.77c-.05.15-.09.3-.14.44a8.146,8.146,0,0,0-7.92-5.87,1.713,1.713,0,0,1-1.9-1.4,1.621,1.621,0,0,1,1.66-1.59,11.907,11.907,0,0,1,9.9,4.65Z" fill="#ee5251" stroke="#fff" stroke-miterlimit="10" stroke-width="1"/>
  </g>
  <path id="Path_271" data-name="Path 271" d="M41.09,20.26a1.636,1.636,0,0,1,1.68,1.49v.11a1.732,1.732,0,0,1-1.92,1.39,8.179,8.179,0,0,0-7.92,5.87c-.05.14-.09.29-.14.44a15.672,15.672,0,0,1-1.6,3.77,10.446,10.446,0,0,1-2.32,2.71,2.057,2.057,0,0,1-2.54-.01,1.327,1.327,0,0,1,.02-2.12,9.5,9.5,0,0,0,2.85-4.79,2.413,2.413,0,0,0,.08-.25,12.318,12.318,0,0,1,1.91-3.95,11.918,11.918,0,0,1,9.9-4.65Z" fill="#ee5251" stroke="#fff" stroke-miterlimit="10" stroke-width="1"/>
  <path id="Path_272" data-name="Path 272" d="M8.04,22.7v8.53a.626.626,0,0,1-.68.56.626.626,0,0,1-.68-.56V22.7a.626.626,0,0,1,.68-.56A.626.626,0,0,1,8.04,22.7Z" fill="#ee5251"/>
  <path id="Path_273" data-name="Path 273" d="M11.28,27.45v7.47a.626.626,0,0,1-.68.56.626.626,0,0,1-.68-.56V27.45a.626.626,0,0,1,.68-.56.626.626,0,0,1,.68.56Z" fill="#00ba8b"/>
  <path id="Path_274" data-name="Path 274" d="M40.38,27.37V35.9a.693.693,0,0,1-1.36,0V27.37a.693.693,0,0,1,1.36,0Z" fill="#00ba8b"/>
  <path id="Path_275" data-name="Path 275" d="M37.14,23.67v7.47a.693.693,0,0,1-1.36,0V23.67a.693.693,0,0,1,1.36,0Z" fill="#ee5251"/>
  <path id="Path_276" data-name="Path 276" d="M24,22.7v8.49a.693.693,0,0,1-1.36,0V22.7a.693.693,0,0,1,1.36,0Z" fill="#00ba8b"/>
  <path id="Path_277" data-name="Path 277" d="M21.07,23.5v6.18a.693.693,0,0,1-1.36,0V23.5a.693.693,0,0,1,1.36,0Z" fill="#00ba8b"/>
  <path id="Path_278" data-name="Path 278" d="M27,23.5v6.18a.693.693,0,0,1-1.36,0V23.5a.693.693,0,0,1,1.36,0Z" fill="#00ba8b"/>
  <g id="Group_583" data-name="Group 583">
    <path id="Path_279" data-name="Path 279" d="M23.32,42.77a.755.755,0,0,1-.75-.75V38.06a.75.75,0,0,1,1.5,0v3.96A.755.755,0,0,1,23.32,42.77Z" fill="#fcd242"/>
    <path id="Path_280" data-name="Path 280" d="M27.57,41.66a.735.735,0,0,1-.65-.38l-1.44-2.49a.746.746,0,0,1,1.29-.75l1.44,2.49a.746.746,0,0,1-.27,1.02.736.736,0,0,1-.37.1Z" fill="#fcd242"/>
    <path id="Path_281" data-name="Path 281" d="M19.08,41.66a.686.686,0,0,1-.37-.1.742.742,0,0,1-.27-1.02l1.44-2.49a.746.746,0,1,1,1.29.75l-1.44,2.49a.756.756,0,0,1-.65.38Z" fill="#fcd242"/>
  </g>
</svg>
