<svg id="Cohortcomparison" xmlns="http://www.w3.org/2000/svg" width="48" height="48" viewBox="0 0 48 48">
  <g id="Group_8" data-name="Group 8">
    <path id="Path_250" data-name="Path 250" d="M3,0H45a3,3,0,0,1,3,3V45a3,3,0,0,1-3,3H3a3,3,0,0,1-3-3V3A3,3,0,0,1,3,0Z" fill="#fff"/>
    <g id="Group_5" data-name="Group 5">
      <path id="Path_5" data-name="Path 5" d="M19.01,44.24a.039.039,0,0,1-.05.04h-.04a16.92,16.92,0,0,1-6.64,1.26,16.837,16.837,0,0,1-6.63-1.26c-.08,0-.09-.01-.09-.09,0-.23.03-.43.03-.65a.682.682,0,0,1,.01-.12,4.338,4.338,0,0,1,.08-.52,6.9,6.9,0,0,1,.25-1.02,6.726,6.726,0,0,1,1.04-2.05,5.873,5.873,0,0,1,.6-.72,3.146,3.146,0,0,1,.37-.36,6.164,6.164,0,0,1,.69-.55.134.134,0,0,1,.2.01,5.033,5.033,0,0,0,2.54,1.22,5.173,5.173,0,0,0,4.36-1.2c.13-.11.09-.13.26-.02a7.132,7.132,0,0,1,2.88,4.53c.04.23.08.46.1.7a.775.775,0,0,0,.01.09l.03.71Z" fill="#00ba8b" stroke="#fff" stroke-miterlimit="10" stroke-width="1"/>
      <path id="Path_6" data-name="Path 6" d="M12.79,31.23a.246.246,0,0,0,.1.04,3.962,3.962,0,1,1-1.28.01c.06,0,.13.01.18-.05h.99Z" fill="#00ba8b" stroke="#fff" stroke-miterlimit="10" stroke-width="1"/>
    </g>
    <path id="Path_7" data-name="Path 7" d="M24,0H44.97A3.034,3.034,0,0,1,48,3.03V45.11A2.891,2.891,0,0,1,45.11,48H24V0Z" fill="#bfeee2"/>
    <g id="Group_6" data-name="Group 6">
      <path id="Path_8" data-name="Path 8" d="M27.88,14.49H16.31V9.31L3.46,19.25l12.85,9.93V24H27.88Z" fill="#fcd242"/>
      <path id="Path_9" data-name="Path 9" d="M20.04,33.51H31.61v5.18l12.85-9.94L31.61,18.82V24H20.04Z" fill="#2a74a5"/>
    </g>
    <g id="Group_7" data-name="Group 7">
      <path id="Path_10" data-name="Path 10" d="M42.72,15.27a.039.039,0,0,1-.05.04h-.04a16.92,16.92,0,0,1-6.64,1.26,16.837,16.837,0,0,1-6.63-1.26c-.08,0-.09-.01-.09-.09,0-.23.03-.43.03-.65a.682.682,0,0,1,.01-.12,4.338,4.338,0,0,1,.08-.52,6.9,6.9,0,0,1,.25-1.02,6.726,6.726,0,0,1,1.04-2.05,5.873,5.873,0,0,1,.6-.72,3.146,3.146,0,0,1,.37-.36,6.164,6.164,0,0,1,.69-.55.134.134,0,0,1,.2.01,5.033,5.033,0,0,0,2.54,1.22,5.173,5.173,0,0,0,4.36-1.2c.13-.11.09-.13.26-.02a7.132,7.132,0,0,1,2.88,4.53c.04.23.08.46.1.7a.776.776,0,0,0,.01.09l.03.71Z" fill="#ee5251" stroke="#bfeee2" stroke-miterlimit="10" stroke-width="1"/>
      <path id="Path_11" data-name="Path 11" d="M36.5,2.25a.246.246,0,0,0,.1.04,3.962,3.962,0,1,1-1.28.01c.06,0,.13.01.18-.05h.99Z" fill="#ee5251" stroke="#bfeee2" stroke-miterlimit="10" stroke-width="1"/>
    </g>
  </g>
</svg>
