<?xml version="1.0" encoding="UTF-8" standalone="no"?>
<svg
   xmlns:dc="http://purl.org/dc/elements/1.1/"
   xmlns:cc="http://creativecommons.org/ns#"
   xmlns:rdf="http://www.w3.org/1999/02/22-rdf-syntax-ns#"
   xmlns:svg="http://www.w3.org/2000/svg"
   xmlns="http://www.w3.org/2000/svg"
   xmlns:sodipodi="http://sodipodi.sourceforge.net/DTD/sodipodi-0.dtd"
   xmlns:inkscape="http://www.inkscape.org/namespaces/inkscape"
   version="1.1"
   width="256"
   height="256"
   viewBox="0 0 256 256"
   xml:space="preserve"
   id="svg5673"
   sodipodi:docname="mutations.svg"
   inkscape:version="1.0.2 (e86c8708, 2021-01-15)"><metadata
   id="metadata5677"><rdf:RDF><cc:Work
       rdf:about=""><dc:format>image/svg+xml</dc:format><dc:type
         rdf:resource="http://purl.org/dc/dcmitype/StillImage" /><dc:title></dc:title></cc:Work></rdf:RDF></metadata><sodipodi:namedview
   pagecolor="#ffffff"
   bordercolor="#666666"
   borderopacity="1"
   objecttolerance="10"
   gridtolerance="10"
   guidetolerance="10"
   inkscape:pageopacity="0"
   inkscape:pageshadow="2"
   inkscape:window-width="1661"
   inkscape:window-height="798"
   id="namedview5675"
   showgrid="false"
   inkscape:zoom="2.9414062"
   inkscape:cx="128"
   inkscape:cy="100.80212"
   inkscape:window-x="0"
   inkscape:window-y="25"
   inkscape:window-maximized="0"
   inkscape:current-layer="svg5673" />
<desc
   id="desc5633">Created with Fabric.js 1.7.22</desc>
<defs
   id="defs5635">

	

	
	
	
	
	
	
	
	
	
	
	
	
	
	
	
	
</defs>
<path
   d="m 235.26504,72.135243 c -1.07551,0 -2.15102,-0.408917 -2.97165,-1.229551 L 201.22972,39.839218 c -1.64127,-1.638468 -1.64127,-4.299228 0,-5.940496 1.64127,-1.641269 4.29922,-1.641269 5.94049,0 l 31.06648,31.063672 c 1.64127,1.638468 1.64127,4.299228 0,5.940497 -0.82344,0.823435 -1.89614,1.232352 -2.97165,1.232352 z"
   style="fill:#ecc644;fill-rule:nonzero;stroke:none;stroke-width:2.8008;stroke-linecap:butt;stroke-linejoin:miter;stroke-miterlimit:10;stroke-dasharray:none"
   stroke-linecap="round"
   id="path5637" /><path
   d="m 203.43955,66.231157 c -1.07551,0 -2.15102,-0.408917 -2.97165,-1.229551 L 176.15696,40.690662 c -1.64127,-1.638468 -1.64127,-4.302029 0,-5.940497 1.64126,-1.641269 4.29922,-1.641269 5.94049,0 l 24.31095,24.310944 c 1.64126,1.638468 1.64126,4.302029 0,5.940497 -0.82064,0.817833 -1.89615,1.229551 -2.96885,1.229551 z"
   style="fill:#ecc644;fill-rule:nonzero;stroke:none;stroke-width:2.8008;stroke-linecap:butt;stroke-linejoin:miter;stroke-miterlimit:10;stroke-dasharray:none"
   stroke-linecap="round"
   id="path5639" /><path
   d="m 154.16507,156.92106 c -1.0755,0 -2.15101,-0.40892 -2.97165,-1.22955 L 108.0583,112.55359 c -1.64126,-1.63847 -1.64126,-4.30203 0,-5.9405 1.64127,-1.64127 4.29923,-1.64127 5.9405,0 l 43.13512,43.13512 c 1.64127,1.64127 1.64127,4.29923 0,5.9405 -0.82063,0.82343 -1.89334,1.23235 -2.96885,1.23235 z"
   style="fill:#ecc644;fill-rule:nonzero;stroke:none;stroke-width:2.8008;stroke-linecap:butt;stroke-linejoin:miter;stroke-miterlimit:10;stroke-dasharray:none"
   stroke-linecap="round"
   id="path5641" /><path
   d="m 136.61526,165.29265 c -1.07551,0 -2.15101,-0.40891 -2.97165,-1.22955 L 108.0555,138.47219 c -1.64127,-1.64127 -1.64127,-4.29923 0,-5.9405 1.64127,-1.64126 4.29923,-1.64126 5.9405,0 l 25.58811,25.59091 c 1.64127,1.64127 1.64127,4.29923 0,5.9405 -0.81783,0.82064 -1.89334,1.22955 -2.96885,1.22955 z"
   style="fill:#ecc644;fill-rule:nonzero;stroke:none;stroke-width:2.8008;stroke-linecap:butt;stroke-linejoin:miter;stroke-miterlimit:10;stroke-dasharray:none"
   stroke-linecap="round"
   id="path5643" /><path
   d="m 161.2595,138.09408 c -1.07551,0 -2.15101,-0.40891 -2.97165,-1.22955 l -24.31374,-24.31094 c -1.64127,-1.63847 -1.64127,-4.29923 0,-5.9405 1.64127,-1.64127 4.29922,-1.64127 5.94049,0 l 24.31375,24.31095 c 1.64127,1.64126 1.64127,4.29922 0,5.94049 -0.81784,0.82064 -1.89334,1.22955 -2.96885,1.22955 z"
   style="fill:#ecc644;fill-rule:nonzero;stroke:none;stroke-width:2.8008;stroke-linecap:butt;stroke-linejoin:miter;stroke-miterlimit:10;stroke-dasharray:none"
   stroke-linecap="round"
   id="path5645" /><path
   d="m 67.934043,239.46344 c -1.075507,0 -2.151014,-0.40892 -2.971649,-1.22955 L 33.901522,207.17021 c -1.641268,-1.64127 -1.641268,-4.29922 0,-5.94049 1.641269,-1.64127 4.299228,-1.64127 5.940497,0 l 31.063673,31.06367 c 1.641269,1.64127 1.641269,4.29923 0,5.9405 -0.820634,0.81783 -1.896142,1.22955 -2.971649,1.22955 z"
   style="fill:#ecc644;fill-rule:nonzero;stroke:none;stroke-width:2.8008;stroke-linecap:butt;stroke-linejoin:miter;stroke-miterlimit:10;stroke-dasharray:none"
   stroke-linecap="round"
   id="path5647" /><path
   d="m 62.029957,207.64075 c -1.075507,0 -2.151015,-0.40892 -2.971649,-1.22955 L 33.842706,181.19559 c -1.641269,-1.64126 -1.641269,-4.29922 0,-5.94049 1.641268,-1.64127 4.299228,-1.64127 5.940496,0 l 25.215603,25.2156 c 1.641269,1.64127 1.641269,4.29923 0,5.9405 -0.820635,0.81783 -1.893341,1.22955 -2.968848,1.22955 z"
   style="fill:#ecc644;fill-rule:nonzero;stroke:none;stroke-width:2.8008;stroke-linecap:butt;stroke-linejoin:miter;stroke-miterlimit:10;stroke-dasharray:none"
   stroke-linecap="round"
   id="path5649" /><path
   d="m 76.804177,179.19302 c -21.91626,-4.2096 -40.947696,-6.24858 -56.066415,8.87294 -4.296427,4.29642 -11.2564148,4.29362 -15.552842,0 -4.2964272,-4.29363 -4.2964272,-11.25642 0,-15.55285 20.291796,-20.29179 44.361871,-20.12374 67.230403,-16.43509"
   style="fill:#f45d15;fill-rule:nonzero;stroke:none;stroke-width:2.8008;stroke-linecap:butt;stroke-linejoin:miter;stroke-miterlimit:10;stroke-dasharray:none"
   stroke-linecap="round"
   id="path5651" /><path
   d="m 99.92198,183.59028 c 22.86573,3.68585 46.93581,3.8539 67.2276,-16.4379 15.86093,-15.86093 19.22189,-34.03252 18.17439,-52.13129 l -22.21594,-2.42829 c 1.42561,14.82463 -0.46213,27.96039 -11.50849,39.00674 -15.12152,15.12152 -34.15295,13.08254 -56.069214,8.87294 z"
   style="fill:#f45d15;fill-rule:nonzero;stroke:none;stroke-width:2.8008;stroke-linecap:butt;stroke-linejoin:miter;stroke-miterlimit:10;stroke-dasharray:none"
   stroke-linecap="round"
   id="path5653" /><path
   d="m 179.19582,76.806978 c 21.91626,4.209602 40.9477,6.245784 56.06642,-8.872935 4.29362,-4.293626 11.25641,-4.293626 15.55284,0 4.29363,4.293627 4.29363,11.256415 0,15.552843 -20.2918,20.291794 -44.36187,20.123744 -67.2276,16.437895"
   style="fill:#38b591;fill-rule:nonzero;stroke:none;stroke-width:2.8008;stroke-linecap:butt;stroke-linejoin:miter;stroke-miterlimit:10;stroke-dasharray:none"
   stroke-linecap="round"
   id="path5655" /><path
   d="m 89.87551,78.330613 c -1.428408,0 -2.820405,-0.728208 -3.60743,-2.041783 L 69.233614,47.866311 c -1.19314,-1.988568 -0.546156,-4.570905 1.445213,-5.764046 1.988568,-1.19034 4.568105,-0.546156 5.764047,1.445213 l 17.034465,28.422518 c 1.193141,1.988568 0.546156,4.570906 -1.445213,5.764046 -0.677793,0.403316 -1.422806,0.596571 -2.156616,0.596571 z"
   style="fill:#ecc644;fill-rule:nonzero;stroke:none;stroke-width:2.8008;stroke-linecap:butt;stroke-linejoin:miter;stroke-miterlimit:10;stroke-dasharray:none"
   stroke-linecap="round"
   id="path5657" /><path
   d="m 78.957992,88.421895 c -0.467734,0 -0.941069,-0.07842 -1.406002,-0.243669 L 44.272885,76.353248 c -2.184624,-0.778622 -3.327351,-3.178908 -2.551529,-5.366333 0.775822,-2.187425 3.178908,-3.32735 5.366333,-2.551529 l 33.276305,11.827779 c 2.184624,0.778622 3.32735,3.178908 2.551528,5.366333 -0.610574,1.71689 -2.232237,2.792397 -3.95753,2.792397 z"
   style="fill:#ecc644;fill-rule:nonzero;stroke:none;stroke-width:2.8008;stroke-linecap:butt;stroke-linejoin:miter;stroke-miterlimit:10;stroke-dasharray:none"
   stroke-linecap="round"
   id="path5659" /><path
   d="m 103.91872,73.462822 c -0.20726,0 -0.41732,-0.014 -0.63298,-0.04761 -2.29385,-0.347299 -3.873506,-2.487111 -3.529007,-4.780966 l 5.259907,-34.923175 c 0.34729,-2.293855 2.4675,-3.873506 4.78096,-3.529008 2.29386,0.347299 3.87351,2.48711 3.52901,4.780966 l -5.2599,34.923175 c -0.31369,2.083795 -2.1034,3.576621 -4.14799,3.576621 z"
   style="fill:#ecc644;fill-rule:nonzero;stroke:none;stroke-width:2.8008;stroke-linecap:butt;stroke-linejoin:miter;stroke-miterlimit:10;stroke-dasharray:none"
   stroke-linecap="round"
   id="path5661" /><path
   d="m 163.10803,112.5928 c -0.73661,-7.65739 -2.35828,-15.765704 -4.05836,-24.268933 -5.44196,-27.215373 -11.61212,-58.060584 13.46344,-83.138947 4.29363,-4.2936264 11.25642,-4.2936264 15.55285,0 4.29362,4.2936264 4.29362,11.256415 0,15.552842 -16.75439,16.754386 -12.44396,38.312144 -7.45013,63.272873 1.99977,10.001657 4.10037,20.493455 4.70814,31.010455 z"
   style="fill:#f45d15;fill-rule:nonzero;stroke:none;stroke-width:2.8008;stroke-linecap:butt;stroke-linejoin:miter;stroke-miterlimit:10;stroke-dasharray:none"
   stroke-linecap="round"
   id="path5663" /><path
   d="m 86.836642,106.3022 c 6.063732,1.54604 9.797199,7.86745 7.867448,13.81915 -4.475679,13.79674 -1.302372,29.81171 2.246241,47.55758 5.441959,27.21538 11.612119,58.06059 -13.463445,83.13615 -6.808745,6.80874 -20.314203,2.82321 -19.280708,-11.94261 0.0112,-0.16525 0.09803,-0.32769 0.224064,-0.43413 20.809944,-17.1689 16.264246,-39.87779 10.953929,-66.44898 -3.74747,-18.74015 -7.833837,-39.19999 -1.826121,-58.31265 1.756101,-5.5904 7.601371,-8.82252 13.278592,-7.37451 z"
   style="fill:#34a381;fill-rule:nonzero;stroke:none;stroke-width:2.8008;stroke-linecap:butt;stroke-linejoin:miter;stroke-miterlimit:10;stroke-dasharray:none"
   stroke-linecap="round"
   id="path5665" /><path
   d="m 156.10043,72.538558 c -0.056,-0.05321 -0.0952,-0.09243 -0.15125,-0.148442 -7.79182,-1.251958 -15.71809,-2.078194 -23.58833,-1.826122 -7.73021,0.246471 -12.72404,8.315576 -9.64036,15.407201 v 0 c 1.78691,4.108774 5.88168,6.772335 10.35736,6.604287 8.42201,-0.316491 17.4882,1.055901 27.12295,2.901628 0.12603,0.02521 0.23807,-0.08402 0.21286,-0.21006 z"
   style="fill:#38b591;fill-rule:nonzero;stroke:none;stroke-width:2.8008;stroke-linecap:butt;stroke-linejoin:miter;stroke-miterlimit:10;stroke-dasharray:none"
   stroke-linecap="round"
   id="path5667" />
</svg>
