<svg id="MutationsFrequency" xmlns="http://www.w3.org/2000/svg" width="48" height="48" viewBox="0 0 48 48">
  <rect id="Rectangle_85" data-name="Rectangle 85" width="48" height="48" rx="3" fill="#fff"/>
  <g id="Group_16" data-name="Group 16">
    <path id="Path_19" data-name="Path 19" d="M30.03,30.49a8.874,8.874,0,0,1-8.44,1.87,12.4,12.4,0,0,0-1.44-4.15,1.791,1.791,0,0,1-.12-.24c4.69,2.51,7.17.99,7.91.37.01,0,.02,0,.02-.02a1.221,1.221,0,0,0,.16-.14l.06-.06a1.991,1.991,0,0,1,.19-.21c.61-.72,2.11-3.19-.38-7.89-.04-.08-.08-.16-.13-.24a12.282,12.282,0,0,1-1.44-4.14A11.85,11.85,0,0,1,30.13,5.35a1.612,1.612,0,0,1,2.31-.05,1.727,1.727,0,0,1-.37,2.34,8.157,8.157,0,0,0-1.45,9.75c.07.13.14.27.22.41a15.5,15.5,0,0,1,1.53,3.79,8.9,8.9,0,0,1-1.87,8.44c-.1.11-.25.27-.47.47Z" fill="#ee5251" stroke="#fff" stroke-miterlimit="10" stroke-width="1"/>
    <path id="Path_20" data-name="Path 20" d="M7.63,32.07a1.733,1.733,0,0,1-2.34.36l-.07-.07a1.626,1.626,0,0,1,.13-2.23,11.906,11.906,0,0,1,10.29-3.71,15.528,15.528,0,0,0,1.53,3.79c.07.14.15.28.22.41a8.145,8.145,0,0,0-9.76,1.46Z" fill="#ee5251" stroke="#fff" stroke-miterlimit="10" stroke-width="1"/>
    <g id="Group_15" data-name="Group 15">
      <path id="Path_21" data-name="Path 21" d="M27.98,20.03a9.651,9.651,0,0,0-5.34-1.37,1.338,1.338,0,0,1-1.5-1.51,2.061,2.061,0,0,1,1.81-1.8,10.587,10.587,0,0,1,3.46.29,12.067,12.067,0,0,0,1.44,4.14c.04.08.09.17.13.24Z" fill="#00ba8b" stroke="#fff" stroke-miterlimit="10" stroke-width="1"/>
      <path id="Path_22" data-name="Path 22" d="M32.37,21.59a15.744,15.744,0,0,0-1.53-3.79c-.07-.14-.15-.28-.22-.41a8.147,8.147,0,0,0,9.75-1.45,1.735,1.735,0,0,1,2.34-.36,1.617,1.617,0,0,1-.05,2.3A11.906,11.906,0,0,1,32.37,21.59Z" fill="#00ba8b" stroke="#fff" stroke-miterlimit="10" stroke-width="1"/>
    </g>
    <path id="Path_23" data-name="Path 23" d="M17.88,42.65a1.639,1.639,0,0,1-2.24.13l-.08-.08a1.729,1.729,0,0,1,.38-2.34,8.151,8.151,0,0,0,1.45-9.75c-.07-.13-.14-.27-.22-.41a15.528,15.528,0,0,1-1.53-3.79,10.4,10.4,0,0,1-.28-3.56,2.051,2.051,0,0,1,1.81-1.79,1.322,1.322,0,0,1,1.49,1.51,9.522,9.522,0,0,0,1.37,5.4c.03.08.08.16.12.24a12.33,12.33,0,0,1,1.44,4.15,11.906,11.906,0,0,1-3.71,10.29Z" fill="#00ba8b" stroke="#fff" stroke-miterlimit="10" stroke-width="1"/>
    <path id="Path_24" data-name="Path 24" d="M39.52,17.56l-6.03-6.03a.636.636,0,0,1,.08-.88.626.626,0,0,1,.88-.08l6.03,6.03a.636.636,0,0,1-.08.88.626.626,0,0,1-.88.08Z" fill="#00ba8b"/>
    <path id="Path_25" data-name="Path 25" d="M33.87,16.5l-5.28-5.28a.636.636,0,0,1,.08-.88.626.626,0,0,1,.88-.08l5.28,5.28a.636.636,0,0,1-.08.88.626.626,0,0,1-.88.08Z" fill="#ee5251"/>
    <path id="Path_26" data-name="Path 26" d="M13.35,37.13,7.32,31.1a.636.636,0,0,1,.08-.88.626.626,0,0,1,.88-.08l6.03,6.03a.636.636,0,0,1-.08.88.626.626,0,0,1-.88.08Z" fill="#ee5251"/>
    <path id="Path_27" data-name="Path 27" d="M18.25,37.45l-5.28-5.28a.636.636,0,0,1,.08-.88.626.626,0,0,1,.88-.08l5.28,5.28a.636.636,0,0,1-.08.88.626.626,0,0,1-.88.08Z" fill="#00ba8b"/>
    <path id="Path_28" data-name="Path 28" d="M28.24,28.85l-6-6a.636.636,0,0,1,.08-.88.626.626,0,0,1,.88-.08l6,6a.636.636,0,0,1-.08.88A.626.626,0,0,1,28.24,28.85Z" fill="#ee5251"/>
    <path id="Path_29" data-name="Path 29" d="M29.74,26.21l-4.37-4.37a.636.636,0,0,1,.08-.88.626.626,0,0,1,.88-.08l4.37,4.37a.636.636,0,0,1-.08.88.626.626,0,0,1-.88.08Z" fill="#ee5251"/>
    <path id="Path_30" data-name="Path 30" d="M25.55,30.4l-4.37-4.37a.636.636,0,0,1,.08-.88.626.626,0,0,1,.88-.08l4.37,4.37a.636.636,0,0,1-.08.88.626.626,0,0,1-.88.08Z" fill="#ee5251"/>
    <path id="Path_31" data-name="Path 31" d="M17.7,17.2l-3.71-6.73s-3.46,2.97-3.22,3.22,6.92,3.51,6.92,3.51Z" fill="#fcd242"/>
    <path id="Path_32" data-name="Path 32" d="M16.38,18.51l-6.09-1.22.36,3.29Z" fill="#fcd242"/>
    <path id="Path_33" data-name="Path 33" d="M18.86,16.03,17.64,9.94l3.29.36Z" fill="#fcd242"/>
  </g>
</svg>
