<svg id="OncoMatrix" xmlns="http://www.w3.org/2000/svg" width="48" height="48" viewBox="0 0 48 48">
  <rect id="Rectangle_88" data-name="Rectangle 88" width="48" height="48" rx="3" fill="#fff"/>
  <g id="Group_19" data-name="Group 19">
    <rect id="Rectangle_89" data-name="Rectangle 89" width="3.48" height="2.07" transform="translate(4.85 24.36)" fill="#00ba8b"/>
    <rect id="Rectangle_90" data-name="Rectangle 90" width="3.48" height="2.07" transform="translate(8.33 24.36)" fill="#00ba8b" opacity="0.403"/>
    <rect id="Rectangle_91" data-name="Rectangle 91" width="3.48" height="2.07" transform="translate(11.81 24.36)" fill="#ee5251" opacity="0.703"/>
    <rect id="Rectangle_92" data-name="Rectangle 92" width="3.48" height="2.07" transform="translate(15.29 24.36)" fill="#00ba8b"/>
    <rect id="Rectangle_93" data-name="Rectangle 93" width="3.48" height="2.07" transform="translate(4.85 26.42)" fill="#00ba8b" opacity="0.7"/>
    <rect id="Rectangle_94" data-name="Rectangle 94" width="3.48" height="2.07" transform="translate(8.33 26.42)" fill="#00ba8b" opacity="0.403"/>
    <rect id="Rectangle_95" data-name="Rectangle 95" width="3.48" height="2.07" transform="translate(11.81 26.42)" fill="#00ba8b"/>
    <rect id="Rectangle_96" data-name="Rectangle 96" width="3.48" height="2.07" transform="translate(15.29 26.42)" fill="#00ba8b"/>
    <rect id="Rectangle_97" data-name="Rectangle 97" width="3.48" height="2.07" transform="translate(18.78 24.36)" fill="#ee5251" opacity="0.4"/>
    <rect id="Rectangle_98" data-name="Rectangle 98" width="3.48" height="2.07" transform="translate(22.26 24.36)" fill="#ee5251"/>
    <rect id="Rectangle_99" data-name="Rectangle 99" width="3.48" height="2.07" transform="translate(18.78 28.49)" fill="#00ba8b" opacity="0.7"/>
    <rect id="Rectangle_100" data-name="Rectangle 100" width="3.48" height="2.07" transform="translate(22.26 28.49)" fill="#ee5251" opacity="0.4"/>
    <rect id="Rectangle_101" data-name="Rectangle 101" width="3.48" height="2.07" transform="translate(25.74 30.55)" fill="#00ba8b"/>
    <rect id="Rectangle_102" data-name="Rectangle 102" width="3.48" height="2.07" transform="translate(29.22 30.55)" fill="#00ba8b" opacity="0.403"/>
    <rect id="Rectangle_103" data-name="Rectangle 103" width="3.48" height="2.07" transform="translate(25.74 24.36)" fill="#ee5251" opacity="0.4"/>
    <rect id="Rectangle_104" data-name="Rectangle 104" width="3.48" height="2.07" transform="translate(29.22 24.36)" fill="#00ba8b"/>
    <rect id="Rectangle_105" data-name="Rectangle 105" width="3.48" height="2.07" transform="translate(32.71 24.36)" fill="#00ba8b" opacity="0.7"/>
    <rect id="Rectangle_106" data-name="Rectangle 106" width="3.48" height="2.07" transform="translate(36.19 24.36)" fill="#ee5251" opacity="0.703"/>
    <rect id="Rectangle_107" data-name="Rectangle 107" width="3.48" height="2.07" transform="translate(36.19 32.62)" fill="#00ba8b"/>
    <rect id="Rectangle_108" data-name="Rectangle 108" width="3.48" height="2.07" transform="translate(39.67 24.36)" fill="#ee5251" opacity="0.4"/>
    <rect id="Rectangle_109" data-name="Rectangle 109" width="3.48" height="2.07" transform="translate(39.67 34.69)" fill="#ee5251" opacity="0.703"/>
    <rect id="Rectangle_110" data-name="Rectangle 110" width="3.48" height="2.07" transform="translate(4.85 34.69)" fill="#ee5251" opacity="0.4"/>
    <rect id="Rectangle_111" data-name="Rectangle 111" width="3.48" height="2.12" transform="translate(4.85 38.87)" fill="#ee5251"/>
    <rect id="Rectangle_112" data-name="Rectangle 112" width="3.48" height="2.12" transform="translate(8.33 38.87)" fill="#00ba8b" opacity="0.403"/>
    <rect id="Rectangle_113" data-name="Rectangle 113" width="3.48" height="2.12" transform="translate(11.81 38.87)" fill="#ee5251" opacity="0.4"/>
    <rect id="Rectangle_114" data-name="Rectangle 114" width="3.48" height="2.12" transform="translate(15.29 38.87)" fill="#00ba8b" opacity="0.403"/>
    <rect id="Rectangle_115" data-name="Rectangle 115" width="3.48" height="2.12" transform="translate(18.78 38.87)" fill="#00ba8b" opacity="0.403"/>
    <rect id="Rectangle_116" data-name="Rectangle 116" width="3.48" height="2.12" transform="translate(22.26 38.87)" fill="#00ba8b" opacity="0.7"/>
    <rect id="Rectangle_117" data-name="Rectangle 117" width="3.48" height="2.12" transform="translate(25.74 38.87)" fill="#ee5251" opacity="0.703"/>
    <rect id="Rectangle_118" data-name="Rectangle 118" width="3.48" height="2.12" transform="translate(29.22 38.87)" fill="#00ba8b" opacity="0.7"/>
    <rect id="Rectangle_119" data-name="Rectangle 119" width="3.48" height="2.12" transform="translate(32.71 38.87)" fill="#00ba8b" opacity="0.7"/>
    <rect id="Rectangle_120" data-name="Rectangle 120" width="3.48" height="2.12" transform="translate(36.19 38.87)" fill="#00ba8b"/>
    <rect id="Rectangle_121" data-name="Rectangle 121" width="3.48" height="2.12" transform="translate(39.67 38.87)" fill="#00ba8b" opacity="0.403"/>
    <rect id="Rectangle_122" data-name="Rectangle 122" width="3.48" height="2.12" transform="translate(4.85 40.99)" fill="#00ba8b"/>
    <rect id="Rectangle_123" data-name="Rectangle 123" width="3.48" height="2.12" transform="translate(8.33 40.99)" fill="#00ba8b" opacity="0.7"/>
    <rect id="Rectangle_124" data-name="Rectangle 124" width="3.48" height="2.12" transform="translate(11.81 40.99)" fill="#00ba8b"/>
    <rect id="Rectangle_125" data-name="Rectangle 125" width="3.48" height="2.12" transform="translate(15.29 40.99)" fill="#ee5251"/>
    <rect id="Rectangle_126" data-name="Rectangle 126" width="3.48" height="2.12" transform="translate(18.78 40.99)" fill="#00ba8b"/>
    <rect id="Rectangle_127" data-name="Rectangle 127" width="3.48" height="2.12" transform="translate(22.26 40.99)" fill="#00ba8b"/>
    <rect id="Rectangle_128" data-name="Rectangle 128" width="3.48" height="2.12" transform="translate(25.74 40.99)" fill="#ee5251" opacity="0.703"/>
    <rect id="Rectangle_129" data-name="Rectangle 129" width="3.48" height="2.12" transform="translate(29.22 40.99)" fill="#00ba8b"/>
    <rect id="Rectangle_130" data-name="Rectangle 130" width="3.48" height="2.12" transform="translate(32.71 40.99)" fill="#00ba8b"/>
    <rect id="Rectangle_131" data-name="Rectangle 131" width="3.48" height="2.12" transform="translate(36.19 40.99)" fill="#00ba8b"/>
    <rect id="Rectangle_132" data-name="Rectangle 132" width="3.48" height="2.12" transform="translate(39.67 40.99)" fill="#00ba8b"/>
    <path id="Path_252" data-name="Path 252" d="M-2303.137-353.8v17.409h38.29l.039-1.878h-36.975l-.039-15.531Z" transform="translate(2308 357)" fill="#313131"/>
    <path id="Path_253" data-name="Path 253" d="M-2299.81-352.371v14.1h34.991v-.805h-6.241V-341.9h-1.115v2.035h-8.652v-3.566h-2.579v2.209h-4.4v-2.209h-6.3v-1.649h-2.935v-2.389h-1.557v-4.907Z" transform="translate(2308 357)" fill="#fcd242"/>
  </g>
</svg>
