<svg id="scRNASeq" xmlns="http://www.w3.org/2000/svg" width="48" height="48" viewBox="0 0 48 48">
  <g id="Group_26" data-name="Group 26">
    <rect id="Rectangle_190" data-name="Rectangle 190" width="48" height="48" rx="3" fill="#fff"/>
    <path id="Path_79" data-name="Path 79" d="M42.28,40.63H5.72V7.37" fill="none" stroke="#313131" stroke-miterlimit="10" stroke-width="1"/>
  </g>
  <path id="Path_80" data-name="Path 80" d="M34.79,20.57a3.2,3.2,0,0,0-.57,1.69,3.263,3.263,0,0,0,.89,1.76,1.9,1.9,0,0,0-.08,2.4,3.32,3.32,0,0,0,2.25,1.21.815.815,0,0,1,.43.14.753.753,0,0,1,.23.37c.43.99,1.25,2,2.33,1.98a2.812,2.812,0,0,1,.71,0,4.75,4.75,0,0,1,.59.31,1.364,1.364,0,0,0,1.63-.52,2.216,2.216,0,0,0,.25-1.78,6.523,6.523,0,0,0-.76-1.68,4.239,4.239,0,0,0,.96-2.47,3.232,3.232,0,0,0-.96-2.43c-.46-.43-1.1-.78-1.17-1.4-.11-.95.22-1.56-.68-2.24a3.166,3.166,0,0,0-2.12-.73c-1.78.2-3.1,1.97-3.92,3.39Z" fill="#00ba8b"/>
  <path id="Path_81" data-name="Path 81" d="M21.58,11.02a1.112,1.112,0,0,1,.19,1.56,1.407,1.407,0,0,0-.34.43,1.427,1.427,0,0,0,.04.58,1.088,1.088,0,0,1-1.66,1.05c-.5-.31-.78-1.02-1.37-1.03a1.433,1.433,0,0,0-.57.16,3.469,3.469,0,0,1-1.44.35,1.625,1.625,0,0,1-1.3-.63c-.11-.15-.18-.33-.3-.47-.46-.5-1.3-.2-1.97-.34a1.617,1.617,0,0,1-1.2-1.53A2,2,0,0,1,12.7,9.44a2.671,2.671,0,0,1,2.04-.18,5.084,5.084,0,0,1,.8-.84,2.7,2.7,0,0,1,1.1-.4,8.563,8.563,0,0,1,2.39.37c.55.08,1.14.04,1.53.51.6.71.19,1.52,1.03,2.11Z" fill="#00ba8b"/>
  <path id="Path_82" data-name="Path 82" d="M24.63,15.01a2.976,2.976,0,0,0,.52,1.59,1.646,1.646,0,0,1,.14,1.61,2.967,2.967,0,0,1-.61.56,2.385,2.385,0,0,0-.77,2.12,1.028,1.028,0,0,1-.01.65.922.922,0,0,1-.35.3,3.083,3.083,0,0,0-.69,3.87,8.412,8.412,0,0,0,3.05,2.96,1.354,1.354,0,0,0,.91.32,2.175,2.175,0,0,0,.63-.31c1.29-.7,2.92.41,4.33,0a1.176,1.176,0,0,0,.73-.53,1.3,1.3,0,0,0,.11-.51,2.852,2.852,0,0,0-.65-1.92c-.28-.34-.66-.63-.75-1.06-.14-.66.44-1.22.67-1.85.3-.83-.03-1.79.23-2.63a15.934,15.934,0,0,1,.72-1.43,2.59,2.59,0,0,0-.25-2.4,1.786,1.786,0,0,0-.42-1.95,2.954,2.954,0,0,0-1.93-.78.657.657,0,0,1-.39-.08c-.18-.11-.22-.36-.3-.55a1.376,1.376,0,0,0-1.41-.78c-.76.09-1.21.74-1.8,1.15-.66.46-1.61.73-1.72,1.67Z" fill="#ee5251"/>
  <path id="Path_83" data-name="Path 83" d="M16.14,18.99c-.16-.11-.27-.28-.44-.39-.6-.38-1.29.32-1.99.43-.59.1-1.19-.25-1.77-.11a1.806,1.806,0,0,0-1.15,1.22,4.357,4.357,0,0,0,1.34,4.82,2.11,2.11,0,0,0-.65,2.06,4.765,4.765,0,0,0,1.04,1.99,3.6,3.6,0,0,0,1.24,1.12,9.054,9.054,0,0,1,1.4.55,5.47,5.47,0,0,1,.57.51,4.952,4.952,0,0,0,2.57.85,1.253,1.253,0,0,1,.68.25c.2.18.27.46.44.67a1.815,1.815,0,0,0,1.55.4,2.646,2.646,0,0,0,2.19-.86,2.649,2.649,0,0,0-.02-2.17c-.17-.53-.41-1.13-.93-1.32a2.905,2.905,0,0,1-.59-.19,1.034,1.034,0,0,1-.34-.66c-.21-.86-.41-1.71-.62-2.57a4.61,4.61,0,0,1-.19-1.76c.13-.84.32-1.31-.14-2.09-.28-.48-.52-.97-.79-1.46a2.614,2.614,0,0,0-1.27-1.27c-.69-.22-1.49.44-2.13,0Z" fill="#fcd242"/>
  <path id="Path_84" data-name="Path 84" d="M8.82,33.27c.11.22.26.46.18.69a2.823,2.823,0,0,1-.18.29c-.18.35.07.76.33,1.06,1.02,1.19,2.43,2.35,3.97,2.1a1.626,1.626,0,0,1,.58-.04,1.473,1.473,0,0,1,.61.44,2.6,2.6,0,0,0,2.6.5,8.738,8.738,0,0,1,1.45-.61,4.242,4.242,0,0,1,1.65.21,1.35,1.35,0,0,0,.69.02c.68-.19.78-1.22.32-1.76a3.458,3.458,0,0,0-1.88-.9,1.091,1.091,0,0,1-.39-.15,1.506,1.506,0,0,1-.37-.68,3.236,3.236,0,0,0-2.04-1.64c-.43-.16-.94-.23-1.35-.43-.5-.25-.66-.72-1-1.14-1.05-1.28-2.8-1.06-4.21-.46a1.887,1.887,0,0,0-.97,2.5Z" fill="#fcd242"/>
  <path id="Path_85" data-name="Path 85" d="M27.22,30.26a4.379,4.379,0,0,0-2.54,1.38c-.35.42-.62.95-1.11,1.19-.15.07-.32.11-.47.19a1.218,1.218,0,0,0-.41,1.76,1.1,1.1,0,0,0,.05,1.32,3.632,3.632,0,0,0,4.34,1.43,2.57,2.57,0,0,0,1.78.9,2.885,2.885,0,0,0,1.72-.2,1.444,1.444,0,0,0,.81-1.44,1.514,1.514,0,0,0,2.02-1.14,2.7,2.7,0,0,0-.96-2.4c.2.19.3-1.42.22-1.61a2.926,2.926,0,0,0-1.61-1.4,7.611,7.611,0,0,0-3.85.02Z" fill="#fcd242"/>
</svg>
