<?xml version="1.0" encoding="UTF-8" standalone="no"?>
<svg
   xmlns:dc="http://purl.org/dc/elements/1.1/"
   xmlns:cc="http://creativecommons.org/ns#"
   xmlns:rdf="http://www.w3.org/1999/02/22-rdf-syntax-ns#"
   xmlns:svg="http://www.w3.org/2000/svg"
   xmlns="http://www.w3.org/2000/svg"
   xmlns:sodipodi="http://sodipodi.sourceforge.net/DTD/sodipodi-0.dtd"
   xmlns:inkscape="http://www.inkscape.org/namespaces/inkscape"
   version="1.1"
   id="Capa_1"
   x="0px"
   y="0px"
   width="97.967003"
   height="75.052002"
   viewBox="0 0 97.967001 75.052"
   xml:space="preserve"
   sodipodi:docname="crowd-of-users.svg"
   inkscape:version="1.0.2 (e86c8708, 2021-01-15)"><metadata
   id="metadata35355"><rdf:RDF><cc:Work
       rdf:about=""><dc:format>image/svg+xml</dc:format><dc:type
         rdf:resource="http://purl.org/dc/dcmitype/StillImage" /><dc:title /></cc:Work></rdf:RDF></metadata><defs
   id="defs35353">
	

		
		
		
		
		
		
		
		
		
		
		
		
		
		
	</defs><sodipodi:namedview
   pagecolor="#ffffff"
   bordercolor="#666666"
   borderopacity="1"
   objecttolerance="10"
   gridtolerance="10"
   guidetolerance="10"
   inkscape:pageopacity="0"
   inkscape:pageshadow="2"
   inkscape:window-width="1471"
   inkscape:window-height="772"
   id="namedview35351"
   showgrid="false"
   fit-margin-top="0"
   fit-margin-left="0"
   fit-margin-right="0"
   fit-margin-bottom="0"
   inkscape:zoom="7.5024496"
   inkscape:cx="29.740923"
   inkscape:cy="37.527746"
   inkscape:window-x="270"
   inkscape:window-y="78"
   inkscape:window-maximized="0"
   inkscape:current-layer="Capa_1"
   inkscape:document-rotation="0" />
<path
   d="m 49.541,27.197 c 1.617,0 3.158,0.338 4.559,0.946 0.105,-2.286 0.893,-4.4 2.157,-6.15 -0.89,-0.186 -1.808,-0.285 -2.748,-0.285 h -8.906 c -0.938,0 -1.856,0.098 -2.739,0.282 1.347,1.869 2.152,4.15 2.165,6.62 1.637,-0.9 3.515,-1.413 5.512,-1.413 z"
   id="path35288"
   style="fill:#2A74A5" /><circle
   cx="49.054001"
   cy="10.496"
   r="10.496"
   id="circle35290"
   style="fill:#2A74A5" /><path
   d="m 65.539,38.902 c 5.342,0 9.67,-4.33 9.67,-9.67 0,-5.342 -4.328,-9.67 -9.67,-9.67 -5.292,0 -9.583,4.251 -9.663,9.524 3.049,1.912 5.187,5.146 5.577,8.9 1.242,0.582 2.623,0.916 4.086,0.916 z"
   id="path35292"
   style="fill:#2A74A5" /><path
   d="m 32.571,19.561 c -5.343,0 -9.671,4.329 -9.671,9.67 0,5.341 4.328,9.669 9.671,9.669 1.892,0 3.651,-0.553 5.143,-1.492 0.475,-3.091 2.132,-5.794 4.499,-7.634 0.01,-0.181 0.027,-0.36 0.027,-0.543 0,-5.341 -4.33,-9.67 -9.669,-9.67 z"
   id="path35294"
   style="fill:#2A74A5" /><path
   d="m 71.82,19.355 c 3.049,1.912 5.187,5.146 5.576,8.901 1.241,0.581 2.623,0.916 4.086,0.916 5.342,0 9.67,-4.329 9.67,-9.67 0,-5.341 -4.328,-9.6700002 -9.67,-9.6700002 C 76.191,9.8309998 71.9,14.083 71.82,19.355 Z"
   id="path35296"
   style="fill:#BFEEE2" /><circle
   cx="49.541"
   cy="39.215"
   r="9.6709995"
   id="circle35298"
   style="fill:#2A74A5" /><path
   d="m 69.643,39.561 h -8.144 c -0.089,3.258 -1.479,6.192 -3.679,8.301 6.068,1.806 10.509,7.434 10.509,14.082 v 3.092 c 8.04,-0.297 12.674,-2.573 12.979,-2.729 l 0.646,-0.328 h 0.067 V 51.943 C 82.023,45.115 76.469,39.561 69.643,39.561 Z"
   id="path35300"
   style="fill:#2A74A5" /><path
   d="m 85.585,29.831 h -8.142 c -0.088,3.258 -1.479,6.192 -3.678,8.301 6.068,1.806 10.508,7.433 10.508,14.081 v 3.092 c 8.039,-0.296 12.674,-2.572 12.979,-2.729 l 0.646,-0.327 h 0.069 V 42.213 c 0,-6.827 -5.554,-12.382 -12.382,-12.382 z"
   id="path35302"
   style="fill:#BFEEE2" /><path
   d="m 41.256,47.861 c -2.189,-2.099 -3.575,-5.017 -3.677,-8.254 -0.301,-0.022 -0.6,-0.047 -0.908,-0.047 h -8.203 c -6.828,0 -12.383,5.555 -12.383,12.383 V 61.98 l 0.025,0.155 0.691,0.218 c 5.227,1.633 9.893,2.383 13.944,2.621 v -3.031 c 0.002,-6.647 4.441,-12.275 10.511,-14.082 z"
   id="path35304"
   style="fill:#2A74A5" /><path
   d="m 53.643,49.545 h -8.206 c -6.828,0 -12.383,5.557 -12.383,12.382 v 10.037 l 0.026,0.157 0.69,0.216 c 6.516,2.035 12.177,2.715 16.835,2.715 9.101,0 14.375,-2.595 14.701,-2.76 l 0.646,-0.328 H 66.02 V 61.927 C 66.023,55.1 60.469,49.545 53.643,49.545 Z"
   id="path35306"
   style="fill:#2A74A5" /><path
   d="m 16.486,29.48 c 1.463,0 2.844,-0.335 4.086,-0.916 0.39,-3.755 2.527,-6.99 5.576,-8.902 -0.08,-5.271 -4.371,-9.523 -9.662,-9.523 -5.343,0 -9.671,4.329 -9.671,9.671 0,5.341 4.328,9.67 9.671,9.67 z"
   id="path35308"
   style="fill:#BFEEE2" /><path
   d="M 24.202,38.441 C 22.004,36.332 20.613,33.397 20.525,30.138 H 12.382 C 5.554,30.139 0,35.694 0,42.521 v 10.037 h 0.069 l 0.646,0.327 c 0.306,0.154 4.939,2.433 12.979,2.728 v -3.092 c 0,-6.647 4.439,-12.275 10.508,-14.08 z"
   id="path35310"
   style="fill:#BFEEE2" /><path
   d="m 27.796,18.605 c 1.16,-0.47 2.93,-1.047 4.62,-1.047 1.967,0 3.891,0.506 5.607,1.469 0.382,-0.375 0.732,-0.783 1.05,-1.22 -1.63,-2.141 -2.52,-4.765 -2.52,-7.464 0,-1.8180002 0.406,-3.6220002 1.18,-5.2610002 -1.762,-1.592 -4.01,-2.461 -6.399,-2.461 -4.348,0 -8.133,2.943 -9.241,7.088 C 25.341,11.599 27.457,14.903 27.796,18.605 Z"
   id="path35312"
   style="fill:#BFEEE2" /><path
   d="m 59.117,17.26 c 0.336,0.534 0.729,1.037 1.175,1.505 1.588,-0.792 3.334,-1.208 5.092,-1.208 1.729,0 3.386,0.442 4.472,0.812 0.34,-4.013 2.767,-7.555 6.4,-9.3500002 -1.332,-3.805 -4.938,-6.402 -9.021,-6.402 -2.64,0 -5.14,1.084 -6.945,2.992 0.634,1.512 0.955,3.101 0.955,4.7300002 -10e-4,2.495 -0.735,4.873 -2.128,6.921 z"
   id="path35314"
   style="fill:#BFEEE2" />
<g
   id="g35320"
   transform="translate(0,-11.458)">
</g>
<g
   id="g35322"
   transform="translate(0,-11.458)">
</g>
<g
   id="g35324"
   transform="translate(0,-11.458)">
</g>
<g
   id="g35326"
   transform="translate(0,-11.458)">
</g>
<g
   id="g35328"
   transform="translate(0,-11.458)">
</g>
<g
   id="g35330"
   transform="translate(0,-11.458)">
</g>
<g
   id="g35332"
   transform="translate(0,-11.458)">
</g>
<g
   id="g35334"
   transform="translate(0,-11.458)">
</g>
<g
   id="g35336"
   transform="translate(0,-11.458)">
</g>
<g
   id="g35338"
   transform="translate(0,-11.458)">
</g>
<g
   id="g35340"
   transform="translate(0,-11.458)">
</g>
<g
   id="g35342"
   transform="translate(0,-11.458)">
</g>
<g
   id="g35344"
   transform="translate(0,-11.458)">
</g>
<g
   id="g35346"
   transform="translate(0,-11.458)">
</g>
<g
   id="g35348"
   transform="translate(0,-11.458)">
</g>
</svg>
