<?xml version="1.0" encoding="UTF-8" standalone="no"?>
<svg
   xmlns:dc="http://purl.org/dc/elements/1.1/"
   xmlns:cc="http://creativecommons.org/ns#"
   xmlns:rdf="http://www.w3.org/1999/02/22-rdf-syntax-ns#"
   xmlns:svg="http://www.w3.org/2000/svg"
   xmlns="http://www.w3.org/2000/svg"
   xmlns:sodipodi="http://sodipodi.sourceforge.net/DTD/sodipodi-0.dtd"
   xmlns:inkscape="http://www.inkscape.org/namespaces/inkscape"
   version="1.1"
   id="Layer_1"
   x="0px"
   y="0px"
   viewBox="0 0 511.969 511.969"
   style="enable-background:new 0 0 511.969 511.969;"
   xml:space="preserve"
   sodipodi:docname="dna.svg"
   inkscape:version="1.0.2 (e86c8708, 2021-01-15)"><metadata
   id="metadata42852"><rdf:RDF><cc:Work
       rdf:about=""><dc:format>image/svg+xml</dc:format><dc:type
         rdf:resource="http://purl.org/dc/dcmitype/StillImage" /></cc:Work></rdf:RDF></metadata><defs
   id="defs42850">
	

		
	</defs><sodipodi:namedview
   pagecolor="#ffffff"
   bordercolor="#666666"
   borderopacity="1"
   objecttolerance="10"
   gridtolerance="10"
   guidetolerance="10"
   inkscape:pageopacity="0"
   inkscape:pageshadow="2"
   inkscape:window-width="1686"
   inkscape:window-height="864"
   id="namedview42848"
   showgrid="false"
   inkscape:zoom="1.4356338"
   inkscape:cx="255.9845"
   inkscape:cy="255.9845"
   inkscape:window-x="234"
   inkscape:window-y="116"
   inkscape:window-maximized="0"
   inkscape:current-layer="Layer_1" />
<path
   d="M 490.627,31.998 H 21.334 C 9.554,31.998 0,41.552 0,53.332 V 373.32 c 0,11.781 9.554,21.311 21.334,21.311 h 166.35 l -12.773,63.996 h -4.257 c -5.891,0 -10.664,4.781 -10.664,10.688 0,5.875 4.773,10.656 10.664,10.656 h 170.668 c 5.875,0 10.656,-4.781 10.656,-10.656 0,-5.906 -4.781,-10.688 -10.656,-10.688 h -4.28 l -12.78,-63.996 h 166.365 c 11.795,0 21.342,-9.529 21.342,-21.311 V 53.332 C 511.968,41.551 502.422,31.998 490.627,31.998 Z m -293.96,426.63 v 0 l 12.757,-63.903 93.088,-0.031 12.78,63.934 z M 490.627,373.32 H 255.984 21.334 v -21.342 h 234.65 234.643 z m 0,-42.686 H 21.334 V 53.332 h 469.293 z"
   id="path42775" />
<g
   id="g42785"
   style="fill:#1f8caa">
	<g
   id="g42783"
   style="fill:#1f8caa">
		<path
   d="M255.984,351.978c-5.89,0-10.663,4.779-10.663,10.654c0,5.906,4.773,10.688,10.663,10.688    c5.891,0,10.664-4.781,10.664-10.688C266.648,356.757,261.875,351.978,255.984,351.978z"
   id="path42781"
   style="fill:#1f8caa" />
	</g>
</g>
<g
   id="g42791"
   style="fill:#6dbcd7;fill-opacity:1">
	<g
   id="g42789"
   style="fill:#6dbcd7;fill-opacity:1">
		<path
   d="M447.972,117.328H277.326c-5.897,0-10.678,4.773-10.678,10.664c0,5.889,4.78,10.663,10.678,10.663h170.646    c5.891,0,10.656-4.773,10.656-10.663C458.628,122.101,453.862,117.328,447.972,117.328z"
   id="path42787"
   style="fill:#6dbcd7;fill-opacity:1" />
	</g>
</g>
<g
   id="g42797"
   style="fill:#37899d">
	<g
   id="g42795"
   style="fill:#37899d">
		<path
   d="M447.972,159.99H277.326c-5.897,0-10.678,4.772-10.678,10.663s4.78,10.671,10.678,10.671h170.646    c5.891,0,10.656-4.78,10.656-10.671C458.628,164.762,453.862,159.99,447.972,159.99z"
   id="path42793"
   style="fill:#37899d" />
	</g>
</g>
<g
   id="g42803"
   style="fill:#6dbcd7;fill-opacity:1">
	<g
   id="g42801"
   style="fill:#6dbcd7;fill-opacity:1">
		<path
   d="M447.972,202.651H277.326c-5.897,0-10.678,4.781-10.678,10.671c0,5.891,4.78,10.664,10.678,10.664h170.646    c5.891,0,10.656-4.773,10.656-10.664C458.628,207.432,453.862,202.651,447.972,202.651z"
   id="path42799"
   style="fill:#6dbcd7;fill-opacity:1" />
	</g>
</g>
<g
   id="g42809"
   style="fill:#37899d">
	<g
   id="g42807"
   style="fill:#37899d">
		<path
   d="M447.972,245.32H277.326c-5.897,0-10.678,4.773-10.678,10.664c0,5.889,4.78,10.662,10.678,10.662h170.646    c5.891,0,10.656-4.773,10.656-10.662C458.628,250.093,453.862,245.32,447.972,245.32z"
   id="path42805"
   style="fill:#37899d" />
	</g>
</g>
<g
   id="g42815"
   style="stroke:#6dbcd7;stroke-opacity:1;fill:#6dbcd7;fill-opacity:1">
	<g
   id="g42813"
   style="stroke:#6dbcd7;stroke-opacity:1;fill:#6dbcd7;fill-opacity:1">
		<path
   d="M161.795,191.988c47.989-32.1,61.402-101.424,62.012-104.713c1.078-5.788-2.742-11.351-8.531-12.429    s-11.351,2.734-12.444,8.523c-0.031,0.195-0.984,5.077-3.18,12.624H77.69c-2.195-7.547-3.148-12.429-3.187-12.624    c-1.078-5.789-6.64-9.602-12.429-8.531c-5.796,1.078-9.617,6.648-8.539,12.437c0.61,3.289,14.023,72.613,62.012,104.713    c-47.989,32.1-61.403,101.43-62.012,104.711c-1.078,5.781,2.742,11.344,8.523,12.438c0.664,0.125,1.32,0.172,1.969,0.172    c5.031,0,9.515-3.578,10.476-8.703c0.039-0.188,0.992-5.078,3.187-12.623h121.961c2.195,7.529,3.148,12.42,3.18,12.623    c0.953,5.125,5.437,8.719,10.476,8.719c0.648,0,1.305-0.062,1.961-0.188c5.789-1.078,9.617-6.641,8.539-12.438    C223.198,293.418,209.785,224.088,161.795,191.988z M95.673,138.655c-4.203-7.202-7.679-14.499-10.5-21.327h106.995    c-2.828,6.828-6.296,14.125-10.5,21.327H95.673z M111.102,159.99h55.137c-7.671,8.444-16.796,15.694-27.568,20.467    C127.898,175.685,118.774,168.435,111.102,159.99z M138.671,203.518c10.772,4.774,19.897,12.023,27.568,20.468h-55.137    C118.773,215.541,127.898,208.292,138.671,203.518z M85.174,266.646c2.82-6.826,6.297-14.123,10.5-21.326h85.995    c4.203,7.203,7.671,14.5,10.5,21.326H85.174z"
   id="path42811"
   style="stroke:#6dbcd7;stroke-opacity:1;fill:#6dbcd7;fill-opacity:1" />
	</g>
</g>
<g
   id="g42817">
</g>
<g
   id="g42819">
</g>
<g
   id="g42821">
</g>
<g
   id="g42823">
</g>
<g
   id="g42825">
</g>
<g
   id="g42827">
</g>
<g
   id="g42829">
</g>
<g
   id="g42831">
</g>
<g
   id="g42833">
</g>
<g
   id="g42835">
</g>
<g
   id="g42837">
</g>
<g
   id="g42839">
</g>
<g
   id="g42841">
</g>
<g
   id="g42843">
</g>
<g
   id="g42845">
</g>
</svg>
