<?xml version="1.0" encoding="UTF-8" standalone="no"?>
<svg
   xmlns:dc="http://purl.org/dc/elements/1.1/"
   xmlns:cc="http://creativecommons.org/ns#"
   xmlns:rdf="http://www.w3.org/1999/02/22-rdf-syntax-ns#"
   xmlns:svg="http://www.w3.org/2000/svg"
   xmlns="http://www.w3.org/2000/svg"
   xmlns:sodipodi="http://sodipodi.sourceforge.net/DTD/sodipodi-0.dtd"
   xmlns:inkscape="http://www.inkscape.org/namespaces/inkscape"
   version="1.1"
   id="Capa_1"
   x="0px"
   y="0px"
   viewBox="0 0 511 511"
   style="enable-background:new 0 0 511 511;"
   xml:space="preserve"
   sodipodi:docname="files.svg"
   inkscape:version="1.0.2 (e86c8708, 2021-01-15)"><metadata
   id="metadata25817"><rdf:RDF><cc:Work
       rdf:about=""><dc:format>image/svg+xml</dc:format><dc:type
         rdf:resource="http://purl.org/dc/dcmitype/StillImage" /></cc:Work></rdf:RDF></metadata><defs
   id="defs25815" /><sodipodi:namedview
   pagecolor="#ffffff"
   bordercolor="#666666"
   borderopacity="1"
   objecttolerance="10"
   gridtolerance="10"
   guidetolerance="10"
   inkscape:pageopacity="0"
   inkscape:pageshadow="2"
   inkscape:window-width="1568"
   inkscape:window-height="959"
   id="namedview25813"
   showgrid="false"
   inkscape:zoom="1.4383562"
   inkscape:cx="255.5"
   inkscape:cy="255.5"
   inkscape:window-x="0"
   inkscape:window-y="25"
   inkscape:window-maximized="0"
   inkscape:current-layer="Capa_1" />
<path
   d="M462.963,166.759c-0.01-0.107-0.031-0.211-0.046-0.317c-0.019-0.136-0.036-0.273-0.062-0.409  c-0.024-0.123-0.058-0.243-0.089-0.364c-0.029-0.116-0.055-0.232-0.089-0.347c-0.036-0.119-0.081-0.234-0.123-0.351  c-0.041-0.114-0.078-0.229-0.125-0.342c-0.045-0.109-0.099-0.214-0.149-0.321c-0.054-0.115-0.105-0.231-0.165-0.343  c-0.055-0.103-0.118-0.202-0.178-0.302c-0.065-0.109-0.127-0.22-0.199-0.327c-0.074-0.111-0.157-0.215-0.237-0.322  c-0.067-0.089-0.129-0.181-0.2-0.268c-0.148-0.18-0.305-0.353-0.469-0.519c-0.01-0.01-0.018-0.021-0.028-0.031l-160-160  c-0.011-0.011-0.024-0.021-0.035-0.032c-0.164-0.162-0.335-0.318-0.514-0.465c-0.086-0.071-0.177-0.133-0.266-0.199  c-0.107-0.08-0.212-0.163-0.323-0.238c-0.104-0.07-0.212-0.13-0.318-0.193c-0.104-0.062-0.206-0.127-0.313-0.185  c-0.106-0.057-0.215-0.104-0.323-0.155c-0.114-0.054-0.227-0.111-0.344-0.159c-0.103-0.042-0.208-0.076-0.312-0.114  c-0.127-0.046-0.252-0.094-0.381-0.133c-0.101-0.031-0.204-0.053-0.307-0.079c-0.135-0.035-0.268-0.072-0.406-0.099  c-0.112-0.022-0.224-0.034-0.336-0.051c-0.13-0.02-0.258-0.043-0.39-0.056c-0.185-0.018-0.371-0.024-0.557-0.028  C295.618,0.008,295.56,0,295.5,0H83.887C64.099,0,48,16.099,48,35.887v375.227c0,18.54,14.132,33.84,32.19,35.697  c1.731,16.842,15.158,30.268,32,32c1.856,18.058,17.157,32.19,35.697,32.19h279.226C446.901,511,463,494.901,463,475.113V167.503  C463,167.254,462.987,167.006,462.963,166.759z M367,89.607L437.393,160h-49.506C376.37,160,367,150.63,367,139.113V89.607z   M63,411.113V35.887C63,24.37,72.37,15,83.887,15h208.506l17,17H115.887C96.099,32,80,48.099,80,67.887v363.737  C70.336,429.795,63,421.3,63,411.113z M95,443.113V67.887C95,56.37,104.37,47,115.887,47h208.506l17,17H147.887  C128.099,64,112,80.099,112,99.887v363.737C102.336,461.795,95,453.3,95,443.113z M427.113,496H147.887  C136.37,496,127,486.63,127,475.113V99.887C127,88.37,136.37,79,147.887,79H352v60.113C352,158.901,368.099,175,387.887,175H448  v300.113C448,486.63,438.63,496,427.113,496z"
   id="path25780"
   style="opacity:0.998;fill:#6dbcd7;fill-opacity:1" />
<g
   id="g25782">
</g>
<g
   id="g25784">
</g>
<g
   id="g25786">
</g>
<g
   id="g25788">
</g>
<g
   id="g25790">
</g>
<g
   id="g25792">
</g>
<g
   id="g25794">
</g>
<g
   id="g25796">
</g>
<g
   id="g25798">
</g>
<g
   id="g25800">
</g>
<g
   id="g25802">
</g>
<g
   id="g25804">
</g>
<g
   id="g25806">
</g>
<g
   id="g25808">
</g>
<g
   id="g25810">
</g>
</svg>
