<!-- Generated by IcoMoon.io -->
<svg version="1.1" xmlns="http://www.w3.org/2000/svg" width="33" height="32" viewBox="0 0 33 32">
<title>gdc-legacy-archive</title>
<path fill="#fff" d="M22.912 10.839h-13.129c-1.643 0-2.973-1.331-2.973-2.973v-3.885c0-1.643 1.331-2.973 2.973-2.973h13.141c1.643 0 2.973 1.331 2.973 2.973v3.885c-0.012 1.643-1.343 2.973-2.985 2.973z"></path>
<path fill="#a3a2a2" d="M22.912 11.846h-13.129c-2.194 0-3.981-1.786-3.981-3.981v-3.885c0-2.194 1.786-3.981 3.981-3.981h13.141c2.194 0 3.981 1.786 3.981 3.981v3.885c-0.012 2.194-1.798 3.981-3.992 3.981zM9.783 2.014c-1.079 0-1.966 0.875-1.966 1.966v3.885c0 1.079 0.875 1.966 1.966 1.966h13.141c1.079 0 1.966-0.875 1.966-1.966v-3.885c0-1.079-0.875-1.966-1.966-1.966h-13.14z"></path>
<path fill="#fff" d="M25.262 16.641h-17.828c-1.762 0-3.177-1.427-3.177-3.177v-6.103c0-1.762 1.427-3.177 3.177-3.177h17.828c1.762 0 3.177 1.427 3.177 3.177v6.103c0 1.762-1.427 3.177-3.177 3.177z"></path>
<path fill="#a3a2a2" d="M25.262 17.721h-17.828c-2.35 0-4.256-1.906-4.256-4.256v-6.103c0-2.35 1.906-4.256 4.256-4.256h17.828c2.35 0 4.256 1.906 4.256 4.256v6.103c0 2.35-1.918 4.256-4.256 4.256zM7.434 5.263c-1.163 0-2.098 0.947-2.098 2.098v6.103c0 1.163 0.947 2.098 2.098 2.098h17.828c1.163 0 2.098-0.947 2.098-2.098v-6.103c0-1.163-0.947-2.098-2.098-2.098h-17.828z"></path>
<path fill="#fff" d="M27.072 22.169h-21.509c-1.762 0-3.177-1.427-3.177-3.177v-7.997c0-1.762 1.427-3.177 3.177-3.177h21.509c1.762 0 3.177 1.427 3.177 3.177v7.997c0 1.75-1.427 3.177-3.177 3.177z"></path>
<path fill="#a3a2a2" d="M27.072 23.248h-21.509c-2.35 0-4.256-1.906-4.256-4.256v-7.997c0-2.35 1.906-4.256 4.256-4.256h21.509c2.35 0 4.256 1.906 4.256 4.256v7.997c0 2.35-1.906 4.256-4.256 4.256zM5.563 8.896c-1.163 0-2.098 0.947-2.098 2.098v7.997c0 1.163 0.947 2.098 2.098 2.098h21.509c1.163 0 2.098-0.947 2.098-2.098v-7.997c0-1.163-0.947-2.098-2.098-2.098h-21.509z"></path>
<path fill="#fff" d="M1.199 12.553h30.405v18.236h-30.405v-18.236z"></path>
<path fill="#a3a2a2" d="M32.803 32h-32.803v-20.646h32.803v20.646zM2.398 29.602h28.008v-15.85h-28.008v15.85z"></path>
<path fill="#fff" d="M10.755 20.178v1.043c0 1.211 0.983 2.194 2.194 2.194h6.894c1.211 0 2.194-0.983 2.194-2.194v-0.803z"></path>
<path fill="#a3a2a2" d="M19.831 24.375h-6.882c-1.738 0-3.153-1.415-3.153-3.153v-1.043c0-0.528 0.432-0.959 0.959-0.959s0.959 0.432 0.959 0.959v1.043c0 0.683 0.552 1.235 1.235 1.235h6.894c0.683 0 1.235-0.552 1.235-1.235v-0.803c0-0.528 0.432-0.959 0.959-0.959s0.959 0.432 0.959 0.959v0.803c-0.012 1.738-1.427 3.153-3.165 3.153z"></path>
</svg>
