<!-- Generated by IcoMoon.io -->
<svg version="1.1" xmlns="http://www.w3.org/2000/svg" width="33" height="32" viewBox="0 0 33 32">
<title>gdc-data-transfer-tool</title>
<path fill="#fff" d="M29.292 2.462c0-0.821-0.872-1.333-1.692-1.333h-22.615c-0.821 0-1.333 0.523-1.333 1.333v15.487h25.641v-15.487z"></path>
<path fill="#fff" d="M29.241 19.077h-25.867l-2.297 8.718h30.462z"></path>
<path fill="#fff" d="M1.19 29.692c0 0.626 0.236 1.18 0.851 1.18h28.523c0.626 0 1.077-0.554 1.077-1.18v-0.872h-30.462v0.872z"></path>
<path fill="#a3a3a3" d="M30.318 18.277v-15.815c0-1.395-1.313-2.462-2.718-2.462h-22.615c-1.395 0-2.462 1.067-2.462 2.462v15.856l-2.492 9.426c0 0.062-0.031 1.969-0.031 1.969 0 1.2 0.841 2.287 2.041 2.287h28.523c1.2 0 2.082-1.087 2.082-2.287 0 0 0.020-1.908 0-1.969l-2.328-9.467zM3.651 2.462c0-0.821 0.513-1.333 1.333-1.333h22.615c0.82 0 1.692 0.523 1.692 1.333v15.487h-25.641v-15.487zM3.374 19.077h25.856l2.308 8.718h-30.462l2.297-8.718zM31.651 29.692c0 0.626-0.462 1.18-1.077 1.18h-28.533c-0.626 0-0.851-0.554-0.851-1.18v-0.872h30.462v0.872z"></path>
<path fill="#a3a3a3" d="M22.020 25.456c0 0 0 0 0 0h-10.626c-0.103 0-0.205-0.051-0.277-0.133s-0.092-0.195-0.072-0.297l0.738-3.333c0.031-0.164 0.174-0.277 0.338-0.277h9.138c0.164 0 0.308 0.113 0.338 0.277l0.728 3.303c0.010 0.031 0.020 0.072 0.020 0.113 0.020 0.195-0.133 0.349-0.328 0.349zM11.826 24.759h9.754l-0.585-2.636h-8.585l-0.585 2.636z"></path>
<path fill="#000" d="M27.077 16.482h-21.313c-0.39 0-0.708-0.318-0.708-0.708v-12.277c0-0.39 0.318-0.708 0.708-0.708h21.313c0.39 0 0.708 0.318 0.708 0.708v12.277c0 0.39-0.318 0.708-0.708 0.708z"></path>
<path fill="#fff" d="M12.892 8.656l-5.169 2.246c-0.195 0.082-0.41-0.062-0.41-0.267v-0.79c0-0.123 0.072-0.226 0.185-0.277l4.082-1.62v-0.021l-4.082-1.62c-0.113-0.051-0.185-0.154-0.185-0.277v-0.779c0-0.215 0.215-0.359 0.41-0.267l5.169 2.246c0.113 0.051 0.174 0.154 0.174 0.267v0.892c0 0.113-0.062 0.215-0.174 0.267z"></path>
<path fill="#fff" d="M19.61 12.256v0c0 0.164-0.133 0.297-0.297 0.297h-5.313c-0.164 0-0.297-0.133-0.297-0.297v0c0-0.164 0.133-0.297 0.297-0.297h5.313c0.164 0 0.297 0.133 0.297 0.297z"></path>
</svg>
