<!-- Generated by IcoMoon.io -->
<svg version="1.1" xmlns="http://www.w3.org/2000/svg" width="29" height="32" viewBox="0 0 29 32">
<title>gdc-docs</title>
<path fill="#fff" d="M27.027 26.31l-17.369-0.062c-0.902 0-1.63-0.738-1.63-1.64l0.082-22.372c0-0.902 0.738-1.63 1.64-1.63l11.514 0.041c0.451 0 0.892 0.195 1.2 0.533l5.834 6.367c0.277 0.308 0.431 0.697 0.431 1.107l-0.062 16.026c0 0.902-0.728 1.63-1.64 1.63z"></path>
<path fill="#a3a3a3" d="M27.038 26.914v0l-17.379-0.062c-0.595 0-1.159-0.236-1.579-0.666-0.42-0.42-0.656-0.984-0.646-1.589l0.082-22.372c0-1.22 1.005-2.225 2.235-2.225l11.524 0.041c0.625 0 1.22 0.267 1.64 0.728l5.834 6.367c0.379 0.42 0.595 0.954 0.584 1.517l-0.062 16.026c0 1.23-1.005 2.235-2.235 2.235zM9.751 1.21c-0.564 0-1.025 0.461-1.025 1.025l-0.082 22.372c0 0.277 0.103 0.533 0.297 0.728s0.451 0.297 0.728 0.308l17.369 0.062c0.564 0 1.025-0.461 1.025-1.025l0.062-16.026c0-0.256-0.092-0.502-0.267-0.697l-5.834-6.367c-0.195-0.215-0.472-0.328-0.748-0.338l-11.524-0.041z"></path>
<path fill="#fff" d="M21.778 0.636l-0.020 4.686c0 1.641 1.312 2.984 2.943 2.984l4.101 0.010c0 0.010-7.023-7.546-7.023-7.68z"></path>
<path fill="#a3a3a3" d="M28.801 8.777c0 0 0 0 0 0l-4.101-0.010c-1.876-0.010-3.404-1.558-3.404-3.445l0.020-4.675c0-0.246 0.205-0.451 0.451-0.451v0c0.174 0 0.318 0.092 0.4 0.236 0.349 0.451 4.337 4.768 6.962 7.598 0.123 0.133 0.154 0.328 0.082 0.492-0.062 0.154-0.226 0.256-0.41 0.256zM22.229 1.856l-0.010 3.466c0 1.394 1.107 2.533 2.491 2.533l3.045 0.010c-3.086-3.322-4.696-5.065-5.526-6.008z"></path>
<path fill="#a3a3a3" d="M24.003 10.807c0 0 0 0 0 0l-11.422-0.041c-0.256 0-0.451-0.205-0.451-0.461 0-0.246 0.205-0.451 0.451-0.451 0 0 0 0 0 0l11.422 0.041c0.256 0 0.451 0.205 0.451 0.461 0.010 0.246-0.195 0.451-0.451 0.451z"></path>
<path fill="#a3a3a3" d="M24.044 14.18c0 0 0 0 0 0l-11.432-0.041c-0.256 0-0.451-0.205-0.451-0.461 0-0.246 0.205-0.451 0.451-0.451 0 0 0 0 0 0l11.422 0.041c0.256 0 0.451 0.205 0.451 0.461 0.010 0.246-0.195 0.451-0.441 0.451z"></path>
<path fill="#a3a3a3" d="M24.033 17.676c0 0 0 0 0 0l-11.432-0.041c-0.256 0-0.451-0.205-0.451-0.461 0-0.246 0.205-0.451 0.451-0.451 0 0 0 0 0 0l11.432 0.041c0.256 0 0.451 0.205 0.451 0.461 0 0.246-0.205 0.451-0.451 0.451z"></path>
<path fill="#fff" d="M19.604 31.385l-17.369-0.062c-0.902 0-1.63-0.738-1.63-1.64l0.082-22.362c0-0.902 0.738-1.63 1.641-1.63l11.514 0.041c0.451 0 0.892 0.195 1.2 0.533l5.834 6.367c0.277 0.308 0.431 0.697 0.431 1.107l-0.062 16.026c0 0.902-0.738 1.63-1.64 1.62z"></path>
<path fill="#a3a3a3" d="M19.614 32v0l-17.379-0.062c-1.241-0.010-2.235-1.015-2.235-2.256l0.082-22.372c0-1.23 1.005-2.235 2.245-2.235l11.524 0.051c0.625 0 1.22 0.267 1.64 0.728l5.834 6.367c0.379 0.42 0.595 0.954 0.584 1.517l-0.062 16.026c0 1.23-1.005 2.235-2.235 2.235zM2.327 6.295c-0.564 0-1.025 0.461-1.025 1.025l-0.082 22.372c0 0.564 0.461 1.025 1.025 1.025l17.369 0.062c0.564 0 1.025-0.461 1.025-1.025l0.062-16.026c0-0.256-0.092-0.502-0.267-0.697l-5.834-6.367c-0.195-0.215-0.472-0.328-0.748-0.338l-11.524-0.031z"></path>
<path fill="#fff" d="M14.354 5.721l-0.021 4.686c-0.010 1.651 1.312 2.984 2.943 2.994l4.101 0.010c0-0.010-7.023-7.567-7.023-7.69z"></path>
<path fill="#a3a3a3" d="M21.378 13.862c0 0 0 0 0 0l-4.101-0.010c-1.876-0.010-3.404-1.558-3.404-3.445l0.021-4.675c0-0.246 0.205-0.451 0.451-0.451 0 0 0 0 0 0 0.174 0 0.318 0.092 0.4 0.236 0.349 0.451 4.337 4.768 6.962 7.598 0.123 0.133 0.154 0.328 0.082 0.492-0.062 0.144-0.226 0.256-0.41 0.256zM14.806 6.941l-0.010 3.466c0 1.394 1.118 2.533 2.492 2.533l3.055 0.010c-3.096-3.322-4.706-5.075-5.537-6.008z"></path>
<path fill="#a3a3a3" d="M16.579 15.882c0 0 0 0 0 0l-11.432-0.041c-0.256 0-0.451-0.205-0.451-0.461 0-0.246 0.205-0.451 0.451-0.451 0 0 0 0 0 0l11.432 0.041c0.256 0 0.451 0.205 0.451 0.461s-0.205 0.451-0.451 0.451z"></path>
<path fill="#a3a3a3" d="M16.62 19.266c0 0 0 0 0 0l-11.432-0.041c-0.256 0-0.451-0.205-0.451-0.461 0-0.246 0.205-0.451 0.451-0.451 0 0 0 0 0 0l11.422 0.041c0.256 0 0.451 0.205 0.451 0.461 0.010 0.246-0.195 0.451-0.441 0.451z"></path>
<path fill="#a3a3a3" d="M16.6 22.752c0 0 0 0 0 0l-11.432-0.041c-0.256 0-0.451-0.205-0.451-0.461 0-0.246 0.205-0.451 0.451-0.451 0 0 0 0 0 0l11.442 0.041c0.256 0 0.451 0.205 0.451 0.461 0 0.246-0.205 0.451-0.461 0.451z"></path>
</svg>
