<!-- Generated by IcoMoon.io -->
<svg version="1.1" xmlns="http://www.w3.org/2000/svg" width="33" height="32" viewBox="0 0 33 32">
<title>gdc-submission-portal</title>
<path fill="#fff" d="M29.303 2.451c0-0.821-0.892-1.323-1.703-1.323h-22.626c-0.821 0-1.313 0.513-1.313 1.323v15.497h25.641v-15.497z"></path>
<path fill="#fff" d="M31.538 27.795l-2.308-8.718h-25.856l-2.308 8.718z"></path>
<path fill="#fff" d="M1.2 29.692c0 0.626 0.215 1.18 0.831 1.18h28.533c0.626 0 1.097-0.564 1.097-1.18v-0.872h-30.462v0.872z"></path>
<path fill="#a3a2a2" d="M2.533 2.451v15.856l-2.503 9.436c0 0.062-0.031 1.969-0.031 1.969 0 1.2 0.831 2.287 2.041 2.287h28.523c1.2 0 2.082-1.087 2.082-2.287 0 0 0.031-1.918 0-1.969l-2.318-9.477v-15.815c0-1.395-1.333-2.451-2.728-2.451h-22.626c-1.395 0-2.441 1.056-2.441 2.451zM31.662 29.692c0 0.626-0.472 1.18-1.097 1.18h-28.523c-0.626 0-0.831-0.564-0.831-1.18v-0.872h30.462v0.872zM3.662 2.451c0-0.821 0.503-1.323 1.313-1.323h22.615c0.82 0 1.703 0.513 1.703 1.323v15.497h-25.641v-15.497zM29.231 19.077l2.308 8.718h-30.472l2.308-8.718h25.856z"></path>
<path fill="#a3a2a2" d="M22.010 25.446c0 0 0 0 0 0h-10.626c-0.103 0-0.205-0.051-0.277-0.133s-0.092-0.195-0.072-0.297l0.738-3.333c0.031-0.164 0.174-0.277 0.338-0.277h9.138c0.164 0 0.308 0.113 0.338 0.277l0.728 3.303c0.010 0.031 0.020 0.072 0.020 0.113 0.031 0.195-0.133 0.349-0.328 0.349zM11.826 24.749h9.754l-0.585-2.636h-8.585l-0.585 2.636z"></path>
<path fill="#fff" d="M27.077 16.472h-21.313c-0.39 0-0.708-0.318-0.708-0.708v-12.267c0-0.39 0.318-0.708 0.708-0.708h21.313c0.39 0 0.708 0.318 0.708 0.708v12.277c-0.010 0.38-0.318 0.697-0.708 0.697z"></path>
<path fill="#a3a2a2" d="M27.077 16.574h-21.313c-0.441 0-0.81-0.359-0.81-0.81v-12.267c0-0.441 0.359-0.81 0.81-0.81h21.313c0.441 0 0.81 0.359 0.81 0.81v12.277c-0.010 0.441-0.369 0.8-0.81 0.8zM5.764 2.892c-0.328 0-0.605 0.267-0.605 0.605v12.277c0 0.328 0.267 0.605 0.605 0.605h21.313c0.328 0 0.605-0.267 0.605-0.605v-12.277c0-0.328-0.267-0.605-0.605-0.605h-21.313z"></path>
<path fill="#a3a2a2" d="M16.092 3.662l-3.62 4.441h1.959v6.256h3.282v-6.256h2.010z"></path>
<path fill="#a3a2a2" d="M17.815 14.462h-3.487v-6.256h-2.082l3.846-4.708 3.846 4.708h-2.123v6.256zM14.533 14.256h3.077v-6.256h1.897l-3.415-4.174-3.405 4.174h1.846v6.256z"></path>
<path fill="#a3a2a2" d="M10.39 14.39h11.6v0.205h-11.6v-0.205z"></path>
</svg>
