<!-- Generated by IcoMoon.io -->
<svg version="1.1" xmlns="http://www.w3.org/2000/svg" width="33" height="32" viewBox="0 0 33 32">
<title>gdc-portal-api</title>
<path fill="#fff" d="M29.292 2.462c0-0.821-0.872-1.333-1.692-1.333h-22.615c-0.821 0-1.333 0.523-1.333 1.333v15.487h25.641v-15.487z"></path>
<path fill="#fff" d="M29.241 19.077h-25.867l-2.297 8.718h30.462z"></path>
<path fill="#fff" d="M1.19 29.692c0 0.626 0.236 1.18 0.851 1.18h28.523c0.626 0 1.077-0.554 1.077-1.18v-0.872h-30.462v0.872z"></path>
<path fill="#a3a3a3" d="M30.318 18.277v-15.815c0-1.395-1.313-2.462-2.718-2.462h-22.615c-1.395 0-2.462 1.067-2.462 2.462v15.856l-2.492 9.426c0 0.062-0.031 1.969-0.031 1.969 0 1.2 0.841 2.287 2.041 2.287h28.523c1.2 0 2.082-1.087 2.082-2.287 0 0 0.020-1.908 0-1.969l-2.328-9.467zM3.651 2.462c0-0.821 0.513-1.333 1.333-1.333h22.615c0.82 0 1.692 0.523 1.692 1.333v15.487h-25.641v-15.487zM3.374 19.077h25.856l2.308 8.718h-30.462l2.297-8.718zM31.651 29.692c0 0.626-0.462 1.18-1.077 1.18h-28.533c-0.626 0-0.851-0.554-0.851-1.18v-0.872h30.462v0.872z"></path>
<path fill="#a3a3a3" d="M22.020 25.456c0 0 0 0 0 0h-10.626c-0.103 0-0.205-0.051-0.277-0.133s-0.092-0.195-0.072-0.297l0.738-3.333c0.031-0.164 0.174-0.277 0.338-0.277h9.138c0.164 0 0.308 0.113 0.338 0.277l0.728 3.303c0.010 0.031 0.020 0.072 0.020 0.113 0.020 0.195-0.133 0.349-0.328 0.349zM11.826 24.759h9.754l-0.585-2.636h-8.585l-0.585 2.636z"></path>
<path fill="#a3a3a3" d="M27.077 16.636h-21.313c-0.472 0-0.862-0.39-0.862-0.862v-12.277c0-0.472 0.39-0.862 0.862-0.862h21.313c0.472 0 0.862 0.39 0.862 0.862v12.277c0 0.472-0.39 0.862-0.862 0.862zM5.764 2.954c-0.308 0-0.554 0.246-0.554 0.554v12.277c0 0.308 0.246 0.554 0.554 0.554h21.313c0.308 0 0.554-0.246 0.554-0.554v-12.287c0-0.308-0.246-0.554-0.554-0.554h-21.313z"></path>
<path fill="#a3a3a3" d="M18.862 7.323l-0.985-0.349c-0.082-0.42-0.256-0.81-0.482-1.159l0.451-0.944c-0.144-0.164-0.297-0.328-0.462-0.462l-0.944 0.451c-0.349-0.226-0.738-0.4-1.169-0.482l-0.349-0.985c-0.113-0.010-0.215-0.010-0.328-0.010s-0.226 0.010-0.338 0.010l-0.349 0.974c-0.431 0.082-0.831 0.256-1.18 0.482l-0.933-0.441c-0.164 0.144-0.328 0.297-0.472 0.472l0.441 0.923c-0.236 0.349-0.41 0.759-0.492 1.179l-0.964 0.338c-0.010 0.113-0.010 0.215-0.010 0.328s0.010 0.226 0.010 0.338l0.954 0.338c0.092 0.431 0.256 0.831 0.492 1.19l-0.441 0.923c0.144 0.174 0.308 0.328 0.472 0.472l0.923-0.441c0.349 0.236 0.749 0.4 1.179 0.482l0.349 0.964c0.113 0.010 0.226 0.010 0.338 0.010s0.215-0.010 0.328-0.010l0.349-0.974c0.421-0.092 0.821-0.256 1.169-0.492l0.944 0.451c0.164-0.144 0.328-0.297 0.472-0.472l-0.451-0.944c0.226-0.349 0.39-0.738 0.482-1.159l0.985-0.349c0.010-0.113 0.010-0.226 0.010-0.338 0.010-0.103 0.010-0.205 0-0.318z"></path>
<path fill="#fff" d="M16.133 7.662c0 0.861-0.698 1.559-1.559 1.559s-1.559-0.698-1.559-1.559c0-0.861 0.698-1.559 1.559-1.559s1.559 0.698 1.559 1.559z"></path>
<path fill="#a3a3a3" d="M21.59 12.718l-0.656-0.226c-0.062-0.277-0.174-0.533-0.328-0.759l0.287-0.636c-0.092-0.113-0.205-0.215-0.318-0.308l-0.626 0.308c-0.236-0.144-0.492-0.256-0.779-0.308l-0.246-0.646c-0.072 0-0.144-0.010-0.215 0-0.072 0-0.144 0.010-0.226 0.010l-0.215 0.646c-0.287 0.062-0.544 0.174-0.779 0.338l-0.626-0.277c-0.113 0.103-0.215 0.205-0.308 0.318l0.297 0.605c-0.154 0.236-0.256 0.503-0.308 0.79l-0.636 0.236c0 0.072-0.010 0.144-0.010 0.215s0.010 0.154 0.010 0.226l0.636 0.215c0.062 0.287 0.185 0.544 0.338 0.78l-0.277 0.615c0.103 0.113 0.205 0.215 0.318 0.308l0.605-0.297c0.236 0.154 0.503 0.256 0.79 0.308l0.236 0.636c0.072 0 0.144 0.010 0.226 0.010 0.072 0 0.144-0.010 0.215-0.010l0.215-0.646c0.277-0.062 0.544-0.185 0.769-0.338l0.626 0.287c0.113-0.092 0.215-0.205 0.308-0.318l-0.308-0.615c0.144-0.236 0.256-0.492 0.308-0.78l0.646-0.246c0-0.072 0.010-0.144 0.010-0.226 0.031-0.072 0.020-0.144 0.020-0.215z"></path>
<path fill="#fff" d="M19.785 12.985c0 0.572-0.464 1.036-1.036 1.036s-1.036-0.464-1.036-1.036c0-0.572 0.464-1.036 1.036-1.036s1.036 0.464 1.036 1.036z"></path>
</svg>
