<?xml version="1.0" encoding="UTF-8" standalone="no"?>
<svg
   xmlns:dc="http://purl.org/dc/elements/1.1/"
   xmlns:cc="http://creativecommons.org/ns#"
   xmlns:rdf="http://www.w3.org/1999/02/22-rdf-syntax-ns#"
   xmlns:svg="http://www.w3.org/2000/svg"
   xmlns="http://www.w3.org/2000/svg"
   xmlns:sodipodi="http://sodipodi.sourceforge.net/DTD/sodipodi-0.dtd"
   xmlns:inkscape="http://www.inkscape.org/namespaces/inkscape"
   id="Capa_1"
   enable-background="new 0 0 512 512"
   height="512"
   viewBox="0 0 260 512"
   width="260"
   version="1.1"
   sodipodi:docname="adn.svg"
   inkscape:version="1.0.2 (e86c8708, 2021-01-15)">
  <metadata
     id="metadata1445">
    <rdf:RDF>
      <cc:Work
         rdf:about="">
        <dc:format>image/svg+xml</dc:format>
        <dc:type
           rdf:resource="http://purl.org/dc/dcmitype/StillImage" />
        <dc:title></dc:title>
      </cc:Work>
    </rdf:RDF>
  </metadata>
  <defs
     id="defs1443" />
  <sodipodi:namedview
     pagecolor="#ffffff"
     bordercolor="#666666"
     borderopacity="1"
     objecttolerance="10"
     gridtolerance="10"
     guidetolerance="10"
     inkscape:pageopacity="0"
     inkscape:pageshadow="2"
     inkscape:window-width="1646"
     inkscape:window-height="843"
     id="namedview1441"
     showgrid="false"
     fit-margin-top="0"
     fit-margin-left="0"
     fit-margin-right="0"
     fit-margin-bottom="0"
     inkscape:zoom="1.59375"
     inkscape:cx="-70.784314"
     inkscape:cy="331.29412"
     inkscape:window-x="4"
     inkscape:window-y="25"
     inkscape:window-maximized="0"
     inkscape:current-layer="Capa_1"
     inkscape:document-rotation="0" />
  <path
     d="m 0,502 c 0,5.522 4.478,10 10,10 5.522,0 10,-4.478 10,-10 0,-11.14 1.633,-22.208 4.861,-33 H 141.72 c 4.128,11.639 15.243,20 28.28,20 13.037,0 24.152,-8.361 28.28,-20 h 36.826 c 3.232,10.796 4.894,21.862 4.894,33 0,5.522 4.478,10 10,10 5.522,0 10,-4.478 10,-10 C 260,448.395 227.468,397.794 178.902,376.425 227.858,356.503 260,309.172 260,256 260,202.893 227.912,155.512 178.885,135.568 227.839,114.021 260,63.201 260,10 260,4.478 255.522,0 250,0 c -5.522,0 -10,4.478 -10,10 0,11.14 -1.633,22.208 -4.861,33 H 118.28 C 114.152,31.361 103.037,23 90,23 76.963,23 65.848,31.361 61.72,43 H 24.861 C 21.634,32.208 20,21.141 20,10 20,4.478 15.522,0 10,0 4.478,0 0,4.478 0,10 0,63.272 32.226,114.049 81.115,135.568 32.172,155.478 0,202.796 0,256 0,309.107 32.088,356.488 81.115,376.432 32.161,397.979 0,448.799 0,502 Z m 170,-33 c -5.514,0 -10,-4.486 -10,-10 0,-5.514 4.486,-10 10,-10 5.514,0 10,4.486 10,10 0,5.514 -4.486,10 -10,10 z M 118.28,286 C 114.152,274.361 103.037,266 90,266 76.963,266 65.848,274.361 61.72,286 H 24.165 C 21.414,276.279 20,266.222 20,256 c 0,-10.222 1.415,-20.279 4.166,-30 H 141.72 c 4.128,11.639 15.243,20 28.28,20 13.037,0 24.152,-8.361 28.28,-20 h 37.555 c 2.75,9.721 4.165,19.778 4.165,30 0,10.222 -1.415,20.279 -4.166,30 z M 100,296 c 0,5.514 -4.486,10 -10,10 -5.514,0 -10,-4.486 -10,-10 0,-5.514 4.486,-10 10,-10 5.514,0 10,4.486 10,10 z m 60,-80 c 0,-5.514 4.486,-10 10,-10 5.514,0 10,4.486 10,10 0,5.514 -4.486,10 -10,10 -5.514,0 -10,-4.486 -10,-10 z M 90,43 c 5.514,0 10,4.486 10,10 0,5.514 -4.486,10 -10,10 C 84.486,63 80,58.514 80,53 80,47.486 84.486,43 90,43 Z M 32.841,63 h 28.88 c 4.128,11.639 15.243,20 28.28,20 13.037,0 24.152,-8.361 28.28,-20.01 h 108.88 C 207.912,101.173 170.343,126 130,126 89.658,126 52.089,101.174 32.841,63 Z M 130,146 c 41.657,0 79.404,23.609 97.991,60 H 198.28 c -4.128,-11.639 -15.243,-20 -28.28,-20 -13.037,0 -24.152,8.361 -28.28,20 H 32.009 C 50.596,169.608 88.343,146 130,146 Z M 32.009,306 h 29.712 c 4.128,11.639 15.243,20 28.28,20 13.037,0 24.152,-8.361 28.28,-20.01 H 227.992 C 209.404,342.392 171.657,366 130,366 88.343,366 50.596,342.391 32.009,306 Z M 130,386 c 40.38,0 77.916,24.816 97.152,63 H 198.28 c -4.128,-11.639 -15.243,-20 -28.28,-20 -13.037,0 -24.152,8.361 -28.28,20 H 32.84 C 52.088,410.827 89.657,386 130,386 Z"
     id="path1432"
     style="fill:#6fbcd7;fill-opacity:1" />
</svg>
