<?xml version="1.0" encoding="UTF-8" standalone="no"?>
<svg
   xmlns:dc="http://purl.org/dc/elements/1.1/"
   xmlns:cc="http://creativecommons.org/ns#"
   xmlns:rdf="http://www.w3.org/1999/02/22-rdf-syntax-ns#"
   xmlns:svg="http://www.w3.org/2000/svg"
   xmlns="http://www.w3.org/2000/svg"
   xmlns:sodipodi="http://sodipodi.sourceforge.net/DTD/sodipodi-0.dtd"
   xmlns:inkscape="http://www.inkscape.org/namespaces/inkscape"
   id="Capa_1"
   enable-background="new 0 0 511.945 511.945"
   height="512"
   viewBox="0 0 511.945 511.945"
   width="512"
   version="1.1"
   sodipodi:docname="gene-mutation.svg"
   inkscape:version="1.0.2 (e86c8708, 2021-01-15)">
  <metadata
     id="metadata24631">
    <rdf:RDF>
      <cc:Work
         rdf:about="">
        <dc:format>image/svg+xml</dc:format>
        <dc:type
           rdf:resource="http://purl.org/dc/dcmitype/StillImage" />
      </cc:Work>
    </rdf:RDF>
  </metadata>
  <defs
     id="defs24629" />
  <sodipodi:namedview
     pagecolor="#ffffff"
     bordercolor="#666666"
     borderopacity="1"
     objecttolerance="10"
     gridtolerance="10"
     guidetolerance="10"
     inkscape:pageopacity="0"
     inkscape:pageshadow="2"
     inkscape:window-width="776"
     inkscape:window-height="480"
     id="namedview24627"
     showgrid="false"
     inkscape:zoom="0.35455254"
     inkscape:cx="256"
     inkscape:cy="396.21486"
     inkscape:window-x="242"
     inkscape:window-y="109"
     inkscape:window-maximized="0"
     inkscape:current-layer="Capa_1" />
  <g
     id="g24624"
     style="fill:#6dbcd7;fill-opacity:1">
    <path
       d="m505.363 138.491c-6.254-6.253-15.317-8.021-23.263-5.376l-103.116-103.698c2.441-7.841.611-16.694-5.53-22.836-8.853-8.852-23.348-8.763-32.312.198-15.943 15.943-25.667 38.364-28.901 66.64-2.157 18.856-1.439 40.332 2.125 63.959-5.01-.736-10.412-1.385-14.939-1.885-15.097-1.663-28.853 8.757-31.315 23.729-2.133 11.435 8.216 21.358 19.452 20.482 12.374.756 25.209 3.338 37.613 7.086 6.186 20.469 9.048 42.017 6.333 62.728l-48.579-48.579c-2.929-2.928-7.678-2.928-10.606 0-2.929 2.93-2.929 7.678 0 10.607l55.513 55.513c-3.631 12.227-9.33 23.221-16.949 32.548l-98.542-98.542c5.105-4.17 10.724-7.801 16.807-10.815 10.567-4.884 13.072-20.114 4.594-28.101-10.688-10.62-27.555-12.199-40.103-3.751-6.771 4.56-13.141 9.757-18.932 15.448-2.954 2.903-2.995 7.652-.091 10.605 2.903 2.955 7.651 2.996 10.606.092 5.135-5.047 10.785-9.657 16.794-13.702 6.629-4.465 15.524-3.645 21.153 1.947 1.233 1.657 1.027 2.838-.68 4.021-10.173 5.04-19.284 11.547-27.079 19.341-22.683 22.684-33.837 55.758-31.407 93.159.629 10.51 2.35 21.139 5.249 32.067-5.666-1.348-11.493-2.681-17.189-3.795-1.977-9.073-3.209-17.934-3.718-26.723-1.927-29.573 3.902-57.298 16.856-80.176 2.041-3.604.773-8.181-2.831-10.222-3.604-2.042-8.181-.774-10.222 2.831-14.397 25.428-20.889 56.045-18.772 88.522.443 7.605 1.392 15.232 2.841 23.017-45.371-6.875-97.714-5.418-129.473 26.342-8.86 8.493-9.065 23.797-.199 32.312 5.35 5.436 13.388 7.725 20.836 6.072l105.004 105.003c-1.654 7.453.638 15.488 6.069 20.834 8.521 8.87 23.82 8.658 32.314-.2 8.706-8.706 15.601-19.465 20.493-31.977 1.509-3.858-.396-8.208-4.254-9.717-3.856-1.508-8.208.397-9.716 4.254-4.134 10.572-9.897 19.601-17.129 26.833-2.907 3.04-8.175 3.251-11.101.2-3.042-2.933-2.842-8.191.201-11.1 25.452-25.452 23.013-75.128 15.072-116.257 5.847 1.466 11.283 3.135 17.03 4.716 4.039 23.657 5.142 44.99 3.276 63.471-.416 4.121 2.587 7.799 6.708 8.215 4.117.425 7.799-2.587 8.215-6.709 1.837-18.193 1.013-38.806-2.432-61.395 50.961 10.108 106.814-3.13 140.166-37.691 29.155-29.152 43.551-70.767 40.538-117.177-.499-7.678-1.484-15.456-2.919-23.234 11.414 1.708 22.384 2.763 32.727 3.136.092.003.184.005.275.005 4.017 0 7.344-3.183 7.49-7.229.149-4.14-3.085-7.616-7.225-7.766-12.897-.465-26.871-2.052-41.538-4.717-25.405-3.973-52.239-15.09-78.113-16.321-2.306-.142-6.011.209-5.623-3.08 1.168-7.101 7.694-12.039 14.87-11.252 26.676 2.514 31.741 6.444 57.366 12.099 19.226 4.247 41.267 7.681 62.293 7.68 26.095-.002 50.623-5.292 66.213-20.883 3.116-3.117 8.096-3.206 11.101-.202 3.005 3.006 2.916 7.986-.2 11.102-12.572 12.572-30.333 20.632-52.792 23.955-4.098.606-6.928 4.419-6.322 8.517s4.42 6.93 8.517 6.321c25.713-3.805 46.305-13.288 61.203-28.186 8.963-8.963 9.053-23.459.199-32.313zm-320.362 183.492c-5.997-20.385-7.911-41.076-4.955-61.292l28.729 28.729c1.464 1.464 3.384 2.196 5.303 2.196s3.839-.732 5.303-2.196c2.929-2.93 2.929-7.678 0-10.607l-35.34-35.34c3.86-12.036 9.763-22.823 17.566-31.931l98.796 98.797c-9.108 7.803-19.896 13.707-31.932 17.566l-24.342-24.343c-2.928-2.93-7.677-2.929-10.606-.001-2.929 2.929-2.929 7.678 0 10.606l17.731 17.732c-21.477 3.21-43.679.63-65.138-6.065-.362-1.275-.734-2.561-1.115-3.851zm-44.682 149.295-99.648-99.647c8.59-7.53 21.125-11.741 35.865-13.461l77.381 77.034c-1.613 14.24-5.675 27.078-13.598 36.074zm14.421-56.421-57.847-57.588c16.286.287 33.986 2.684 51.366 6.367 3.067 14.504 6.08 33.036 6.481 51.221zm171.955-87.425c-26.061 26.057-63.566 38.907-105.604 36.165-39.853-2.984-65.918-18.116-111.31-20.758-38.051-2.878-65.479 3.796-81.527 19.844-2.91 3.041-8.162 3.243-11.098.197-3.043-2.933-2.844-8.189.198-11.098 29.878-29.878 82.876-28.58 126.87-20.449 25.958 4.143 52.465 15.464 78.444 16.602 37.375 2.434 70.445-8.723 93.127-31.404 22.683-22.68 33.838-55.75 31.412-93.121-.691-10.633-2.461-21.458-5.26-32.25 5.799 1.391 11.524 2.638 17.14 3.733 1.932 9.016 3.207 18.057 3.784 26.942 2.73 42.039-10.118 79.541-36.176 105.597zm106.285-173.012-75.452-75.465c1.468-14.364 5.301-27.458 12.899-36.87l99.12 99.678c-9.391 7.437-22.357 11.207-36.567 12.657zm-69.898-5.563c-2.904-14.013-5.728-31.76-6.217-49.351l55.565 55.575c-17.59-.491-35.336-3.317-49.348-6.224zm-33.019-8.302c-6.819-40.764-7.992-93.49 21.686-123.168 3.114-3.114 8.093-3.205 11.098-.199s2.917 7.985-.198 11.1c-25.686 25.686-23.412 75.612-15.593 116.889-7.228-1.805-11.149-3.048-16.993-4.622z"
       id="path24616"
       style="fill:#6dbcd7;fill-opacity:1" />
    <path
       d="m233.937 106.572c.767 3.507 3.872 5.899 7.319 5.899 4.715.052 8.403-4.499 7.334-9.104l-12.822-58.614c-.885-4.047-4.884-6.608-8.929-5.725-4.046.886-6.609 4.884-5.724 8.93z"
       id="path24618"
       style="fill:#6dbcd7;fill-opacity:1" />
    <path
       d="m209.704 131.177c2.845 3.019 7.593 3.151 10.602.314 3.014-2.841 3.155-7.588.314-10.602l-39.992-42.435c-2.84-3.016-7.587-3.157-10.602-.314-3.014 2.841-3.155 7.588-.314 10.602z"
       id="path24620"
       style="fill:#6dbcd7;fill-opacity:1" />
    <path
       d="m271.381 120.319c3.82 1.318 8.187-.749 9.502-4.712l18.622-55.256c1.323-3.926-.787-8.18-4.712-9.503-3.925-1.322-8.18.787-9.502 4.712l-18.622 55.256c-1.323 3.925.787 8.179 4.712 9.503z"
       id="path24622"
       style="fill:#6dbcd7;fill-opacity:1" />
  </g>
</svg>
