<svg xmlns="http://www.w3.org/2000/svg" width="14" height="16" viewBox="0 0 35 40">
  <defs>
    <clipPath id="clip-Microscope">
      <rect width="35" height="40"/>
    </clipPath>
  </defs>
  <g id="Microscope" clipPath="url(#clip-Microscope)">
    <rect width="35" height="40" fill="#fff"/>
    <path id="Microscope-2" data-name="Microscope" d="M30.528,36.928a7.7,7.7,0,0,0,5.9-7.5,7.447,7.447,0,0,0-2.651-5.679,11.8,11.8,0,0,0,.151-1.821,12.413,12.413,0,0,0-5-10l2.5-2.5v-2.5l2.5-2.5-2.5-2.5-2.5,2.5h-2.5l-10,10-5,2.5v5l2.5,2.5h5l2.5-5,3.75-3.75a7.333,7.333,0,0,1,3.75,6.25,7.5,7.5,0,0,0-7.5,7.5h-15v2.5h7.5a12.929,12.929,0,0,0,2.5,1.25v3.75h-5l-5,5h30l-5-5h-.9Zm-4.1-7.5a2.5,2.5,0,1,1,2.5,2.5A2.5,2.5,0,0,1,26.427,29.428Z" transform="translate(-1.427 -1.928)" fill="#2a72a5"/>
  </g>
</svg>
