<svg xmlns="http://www.w3.org/2000/svg" width="40" height="40" viewBox="0 0 40 40">
    <g id="FileIcn" transform="translate(0 2)">
        <path id="Path_99"  d="M23.125,7.5H22V3.75a1.877,1.877,0,0,0-1.875-1.875h-3V.75a.75.75,0,0,0-.75-.75H9.625a.75.75,0,0,0-.75.75V1.875h-3A1.877,1.877,0,0,0,4,3.75V19.875A1.877,1.877,0,0,0,5.875,21.75h4.5A1.936,1.936,0,0,0,12.25,24h7.5a.768.768,0,0,0,.53-.22l4.5-4.5a.777.777,0,0,0,.22-.53V9.375A1.877,1.877,0,0,0,23.125,7.5Zm-12.75-6h5.25V3.75h-5.25Zm-4.5,18.75a.375.375,0,0,1-.375-.375V3.75a.375.375,0,0,1,.375-.375h3V4.5a.75.75,0,0,0,.75.75h6.75a.75.75,0,0,0,.75-.75V3.375h3a.375.375,0,0,1,.375.375V7.5H12.25a1.877,1.877,0,0,0-1.875,1.875V20.25Zm6,1.875V9.375A.375.375,0,0,1,12.25,9H23.125a.375.375,0,0,1,.375.375V18H20.875A1.877,1.877,0,0,0,19,19.875V22.5H12.25A.375.375,0,0,1,11.875,22.125Zm8.625-.686c.038-2.334-.387-1.9,1.939-1.939Z" fill="#233c68"/>
        <path id="Path_100"  d="M31.75,30.5h6a.75.75,0,1,0,0-1.5h-6a.75.75,0,1,0,0,1.5Zm0,3.375h6a.75.75,0,1,0,0-1.5h-6a.75.75,0,1,0,0,1.5Zm0,1.875a.75.75,0,1,0,.75.75.75.75,0,0,0-.75-.75Z" transform="translate(-16.875 -18.125)" fill="#233c68"/>
    </g>
</svg>
