<svg xmlns="http://www.w3.org/2000/svg" width="40" height="40" viewBox="0 0 40 40">
    <g id="PSitesIcn" transform="translate(-3 -3)">
        <path id="Path_101" d="M27.4,5.533H19.933a1.6,1.6,0,0,0-1.6,1.6H13.48a2.667,2.667,0,1,0,0,1.067h4.853a1.6,1.6,0,0,0,1.6,1.6H27.4A1.6,1.6,0,0,0,29,8.2V7.133A1.6,1.6,0,0,0,27.4,5.533ZM10.867,9.267a1.6,1.6,0,1,1,1.6-1.6A1.6,1.6,0,0,1,10.867,9.267ZM27.933,8.2a.535.535,0,0,1-.533.533H19.933A.535.535,0,0,1,19.4,8.2V7.133a.535.535,0,0,1,.533-.533H27.4a.535.535,0,0,1,.533.533ZM27.4,11.933H19.933a1.6,1.6,0,0,0-1.6,1.6H16.307a3.192,3.192,0,0,0-2.773-1.6H8.2a3.209,3.209,0,0,0-3.2,3.2v5.6A1.855,1.855,0,0,0,6.867,22.6a1.611,1.611,0,0,0,.8-.187v4.72a1.867,1.867,0,0,0,3.2,1.307A1.861,1.861,0,0,0,14.04,27.4h4.293a1.6,1.6,0,0,0,1.6,1.6H27.4A1.6,1.6,0,0,0,29,27.4V26.333a1.6,1.6,0,0,0-1.6-1.6H19.933a1.6,1.6,0,0,0-1.6,1.6H14.067v-3.92a1.96,1.96,0,0,0,.8.187,1.866,1.866,0,0,0,1.84-1.6h1.627a1.6,1.6,0,0,0,1.6,1.6H27.4A1.6,1.6,0,0,0,29,21V19.933a1.6,1.6,0,0,0-1.6-1.6H19.933a1.6,1.6,0,0,0-1.6,1.6h-1.6v-4.8a3.614,3.614,0,0,0-.053-.533h1.653a1.6,1.6,0,0,0,1.6,1.6H27.4A1.6,1.6,0,0,0,29,14.6V13.533A1.6,1.6,0,0,0,27.4,11.933Zm-8,14.4a.535.535,0,0,1,.533-.533H27.4a.535.535,0,0,1,.533.533V27.4a.535.535,0,0,1-.533.533H19.933A.535.535,0,0,1,19.4,27.4Zm-3.733-5.6a.8.8,0,0,1-1.6,0V15.16a.533.533,0,1,0-1.067,0V27.133a.8.8,0,1,1-1.6,0V21a.535.535,0,0,0-.533-.533.5.5,0,0,0-.213.053.527.527,0,0,0-.32.48v6.133a.8.8,0,1,1-1.6,0V15.16a.533.533,0,1,0-1.067,0v5.573a.8.8,0,0,1-1.6,0v-5.6A2.14,2.14,0,0,1,8.2,13h5.333a2.13,2.13,0,0,1,1.947,1.28,2.335,2.335,0,0,1,.187.853Zm3.733-.8a.535.535,0,0,1,.533-.533H27.4a.535.535,0,0,1,.533.533V21a.535.535,0,0,1-.533.533H19.933A.535.535,0,0,1,19.4,21ZM27.933,14.6a.535.535,0,0,1-.533.533H19.933A.535.535,0,0,1,19.4,14.6V13.533A.535.535,0,0,1,19.933,13H27.4a.535.535,0,0,1,.533.533Z" fill="#233c68"/>
    </g>
</svg>
