<svg xmlns="http://www.w3.org/2000/svg" width="40" height="40" viewBox="0 0 40 40">
    <g id="ProjectIcn" transform="translate(-21 -3)">
        <path id="path18916" d="M59,403.959a.306.306,0,0,0,.305.291H63.7a.278.278,0,0,0,.272-.291V402.7a1.692,1.692,0,0,0-1.708-1.7H60.741A1.72,1.72,0,0,0,59,402.7Zm.574-1.261a1.146,1.146,0,0,1,1.167-1.125h1.523A1.118,1.118,0,0,1,63.4,402.7v.978H59.574Z" transform="translate(-33.327 -377.066)" fill="#1a2b4c" stroke="#1a2b4c" stroke-width="0.25"/>
        <path id="path18918" d="M122.786,428h-.438a.287.287,0,0,0,0,.574h.438a.287.287,0,0,0,0-.574Z" transform="translate(-93.373 -402.777)" fill="#1a2b4c" stroke="#1a2b4c" stroke-width="0.25"/>
        <path id="path18920" d="M73.888,313.447a1.89,1.89,0,0,0,1.888-1.885v-.445a1.888,1.888,0,1,0-3.777,0v.445A1.89,1.89,0,0,0,73.888,313.447Zm-1.315-2.33a1.315,1.315,0,1,1,2.629,0v.445a1.315,1.315,0,0,1-2.629,0Z" transform="translate(-45.705 -289.684)" fill="#1a2b4c" stroke="#1a2b4c" stroke-width="0.25"/>
        <path id="path18922" d="M204.264,404.25h4.395a.272.272,0,0,0,.265-.291V402.7a1.686,1.686,0,0,0-1.7-1.7H205.7a1.686,1.686,0,0,0-1.7,1.7v1.261A.272.272,0,0,0,204.264,404.25Zm.309-1.552a1.112,1.112,0,0,1,1.127-1.125h1.523a1.112,1.112,0,0,1,1.127,1.125v.978h-3.777Z" transform="translate(-171.393 -377.066)" fill="#1a2b4c" stroke="#1a2b4c" stroke-width="0.25"/>
        <path id="path18924" d="M266.938,428H266.5a.287.287,0,0,0,0,.574h.438a.287.287,0,0,0,0-.574Z" transform="translate(-230.633 -402.777)" fill="#1a2b4c" stroke="#1a2b4c" stroke-width="0.25"/>
        <path id="path18926" d="M217.888,313.447a1.89,1.89,0,0,0,1.888-1.885v-.445a1.888,1.888,0,1,0-3.777,0v.445A1.89,1.89,0,0,0,217.888,313.447Zm-1.315-2.33a1.315,1.315,0,1,1,2.629,0v.445a1.315,1.315,0,0,1-2.629,0Z" transform="translate(-182.821 -289.684)" fill="#1a2b4c" stroke="#1a2b4c" stroke-width="0.25"/>
        <path id="path18928" d="M349.266,404.249h4.395a.306.306,0,0,0,.305-.291V402.7a1.72,1.72,0,0,0-1.741-1.7H350.7a1.692,1.692,0,0,0-1.708,1.7v1.261a.278.278,0,0,0,.272.291Zm.3-1.552a1.118,1.118,0,0,1,1.134-1.125h1.523a1.146,1.146,0,0,1,1.167,1.125v.978h-3.825Z" transform="translate(-309.456 -377.066)" fill="#1a2b4c" stroke="#1a2b4c" stroke-width="0.25"/>
        <path id="path18930" d="M412.091,428h-.438a.287.287,0,0,0,0,.574h.438a.287.287,0,1,0,0-.574Z" transform="translate(-368.847 -402.777)" fill="#1a2b4c" stroke="#1a2b4c" stroke-width="0.25"/>
        <path id="path18932" d="M362.888,313.447a1.89,1.89,0,0,0,1.888-1.885v-.445a1.888,1.888,0,1,0-3.777,0v.445A1.89,1.89,0,0,0,362.888,313.447Zm-1.315-2.33a1.315,1.315,0,1,1,2.629,0v.445a1.315,1.315,0,0,1-2.629,0Z" transform="translate(-320.888 -289.684)" fill="#1a2b4c" stroke="#1a2b4c" stroke-width="0.25"/>
        <path id="path18934" d="M26.2,29H43.982a2.2,2.2,0,0,0,2.2-2.193V15.068a2.188,2.188,0,0,0-2.2-2.179H42.167V8.181a.3.3,0,0,0-.093-.2L39.221,5.086A.3.3,0,0,0,39.011,5H28.324a.306.306,0,0,0-.308.287V10.02H26.2A2.19,2.19,0,0,0,24,12.2V26.807A2.2,2.2,0,0,0,26.2,29ZM42.167,13.462h1.815a1.614,1.614,0,0,1,1.627,1.606v3.155a.2.2,0,0,1-.072-.063,2.179,2.179,0,0,0-1.555-.634H42.167ZM39.3,5.987l1.883,1.929H39.3ZM28.59,5.574H38.725V8.189a.3.3,0,0,0,.286.3h2.583v9.036H35.188a1.621,1.621,0,0,1-1.119-.458L32.174,15.26a2.178,2.178,0,0,0-1.516-.6H28.59ZM24.574,12.2a1.615,1.615,0,0,1,1.628-1.6h1.815v4.064H26.2a2.179,2.179,0,0,0-1.555.633.2.2,0,0,1-.073.062Zm0,4.634a1.591,1.591,0,0,1,.478-1.136,1.609,1.609,0,0,1,1.149-.465h4.457a1.6,1.6,0,0,1,1.119.44l1.894,1.816a2.188,2.188,0,0,0,1.516.613h8.795a1.609,1.609,0,0,1,1.149.466A1.592,1.592,0,0,1,45.61,19.7v7.105a1.628,1.628,0,0,1-1.628,1.62H26.2a1.628,1.628,0,0,1-1.628-1.62Z" transform="translate(0 0)" fill="#1a2b4c" stroke="#1a2b4c" stroke-width="0.25"/>
        <path id="path18936" d="M345.364,142h-.407a.287.287,0,1,0,0,.574h.407a.287.287,0,0,0,0-.574Z" transform="translate(-305.511 -130.45)" fill="#1a2b4c" stroke="#1a2b4c" stroke-width="0.25"/>
        <path id="path18938" d="M286.9,142.574a.287.287,0,1,0,0-.574h-1.109a.287.287,0,1,0,0,.574Z" transform="translate(-248.998 -130.45)" fill="#1a2b4c" stroke="#1a2b4c" stroke-width="0.25"/>
        <path id="path18940" d="M147.107,142.574h5.051a.287.287,0,1,0,0-.574h-5.051a.287.287,0,0,0,0,.574Z" transform="translate(-116.948 -130.45)" fill="#1a2b4c" stroke="#1a2b4c" stroke-width="0.25"/>
        <path id="path18942" d="M312.774,105.574h1.945a.287.287,0,1,0,0-.574h-1.945a.287.287,0,0,0,0,.574Z" transform="translate(-274.866 -95.219)" fill="#1a2b4c" stroke="#1a2b4c" stroke-width="0.25"/>
        <path id="path18944" d="M200.01,105.574H204.2a.287.287,0,0,0,0-.574H200.01a.287.287,0,1,0,0,.574Z" transform="translate(-167.494 -95.219)" fill="#1a2b4c" stroke="#1a2b4c" stroke-width="0.25"/>
        <path id="path18946" d="M147.107,105.574h.95a.287.287,0,0,0,0-.574h-.95a.287.287,0,0,0,0,.574Z" transform="translate(-117.12 -95.219)" fill="#1a2b4c" stroke="#1a2b4c" stroke-width="0.25"/>
        <path id="path18948" d="M314.719,179h-1.945a.287.287,0,0,0,0,.574h1.945a.287.287,0,1,0,0-.574Z" transform="translate(-274.695 -165.681)" fill="#1a2b4c" stroke="#1a2b4c" stroke-width="0.25"/>
        <path id="path18950" d="M204.2,179H200.01a.287.287,0,1,0,0,.574H204.2a.287.287,0,0,0,0-.574Z" transform="translate(-167.322 -165.681)" fill="#1a2b4c" stroke="#1a2b4c" stroke-width="0.25"/>
        <path id="path18952" d="M148.344,179.287a.287.287,0,0,0-.287-.287h-.95a.287.287,0,0,0,0,.574h.95A.287.287,0,0,0,148.344,179.287Z" transform="translate(-116.948 -165.681)" fill="#1a2b4c" stroke="#1a2b4c" stroke-width="0.25"/>
    </g>
</svg>
