<svg xmlns="http://www.w3.org/2000/svg" width="40" height="40" viewBox="0 0 40 40">
    <g id="CaseIcn" transform="translate(-15 -17)">
        <path id="Path_102"  d="M28.954,31.477a6.738,6.738,0,1,0-6.72-6.757A6.721,6.721,0,0,0,28.954,31.477Zm0-11.7a4.948,4.948,0,1,1-4.948,4.985A4.948,4.948,0,0,1,28.954,19.772ZM17.286,42H40.7a.9.9,0,0,0,.886-.886,8.478,8.478,0,0,0-8.455-8.455H24.855A8.478,8.478,0,0,0,16.4,41.114.9.9,0,0,0,17.286,42Zm7.569-7.569h8.271a6.659,6.659,0,0,1,6.609,5.8H18.246a6.659,6.659,0,0,1,6.609-5.8Z" fill="#233c68"/>
    </g>
</svg>
